<?xml version="1.0" encoding="UTF-8"?>
<!DOCTYPE svg PUBLIC "-//W3C//DTD SVG 1.1//EN" "http://www.w3.org/Graphics/SVG/1.1/DTD/svg11.dtd">
<svg xmlns="http://www.w3.org/2000/svg" version="1.1" width="512px" height="512px" style="shape-rendering:geometricPrecision; text-rendering:geometricPrecision; image-rendering:optimizeQuality; fill-rule:evenodd; clip-rule:evenodd" xmlns:xlink="http://www.w3.org/1999/xlink">
<g><path style="opacity:0.379" fill="#636dcb" d="M 255.5,16.5 C 255.263,20.2887 254.596,20.2887 253.5,16.5C 254.167,15.1667 254.833,15.1667 255.5,16.5 Z"/></g>
<g><path style="opacity:0.865" fill="#636dca" d="M 253.5,16.5 C 254.596,20.2887 255.263,20.2887 255.5,16.5C 256.609,16.5569 257.609,16.8902 258.5,17.5C 258.762,19.5638 259.929,20.8971 262,21.5C 262.399,21.2716 262.565,20.9382 262.5,20.5C 263.609,20.5569 264.609,20.8902 265.5,21.5C 265.369,22.2389 265.536,22.9056 266,23.5C 266.69,24.7383 267.19,24.7383 267.5,23.5C 269.284,23.8925 270.95,24.5592 272.5,25.5C 272.369,26.2389 272.536,26.9056 273,27.5C 273.69,28.7383 274.19,28.7383 274.5,27.5C 275.609,27.5569 276.609,27.8902 277.5,28.5C 277.762,30.5638 278.929,31.8971 281,32.5C 281.399,32.2716 281.565,31.9382 281.5,31.5C 282.609,31.5569 283.609,31.8902 284.5,32.5C 284.762,34.5638 285.929,35.8971 288,36.5C 288.399,36.2716 288.565,35.9382 288.5,35.5C 289.609,35.5569 290.609,35.8902 291.5,36.5C 291.369,37.2389 291.536,37.9056 292,38.5C 292.69,39.7383 293.19,39.7383 293.5,38.5C 294.609,38.5569 295.609,38.8902 296.5,39.5C 296.762,41.5638 297.929,42.8971 300,43.5C 300.399,43.2716 300.565,42.9382 300.5,42.5C 301.609,42.5569 302.609,42.8902 303.5,43.5C 303.414,44.4959 303.748,45.3292 304.5,46C 306.081,46.7065 307.581,47.5399 309,48.5C 309.399,48.2716 309.565,47.9382 309.5,47.5C 309.833,47.5 310.167,47.5 310.5,47.5C 310.762,49.5638 311.929,50.8971 314,51.5C 314.399,51.2716 314.565,50.9382 314.5,50.5C 315.609,50.5569 316.609,50.8902 317.5,51.5C 317.762,53.5638 318.929,54.8971 321,55.5C 321.399,55.2716 321.565,54.9382 321.5,54.5C 322.609,54.5569 323.609,54.8902 324.5,55.5C 324.762,57.5638 325.929,58.8971 328,59.5C 328.399,59.2716 328.565,58.9382 328.5,58.5C 328.833,58.5 329.167,58.5 329.5,58.5C 329.762,60.5638 330.929,61.8971 333,62.5C 333.399,62.2716 333.565,61.9382 333.5,61.5C 334.609,61.5569 335.609,61.8902 336.5,62.5C 336.762,64.5638 337.929,65.8971 340,66.5C 340.399,66.2716 340.565,65.9382 340.5,65.5C 341.609,65.5569 342.609,65.8902 343.5,66.5C 343.762,68.5638 344.929,69.8971 347,70.5C 347.399,70.2716 347.565,69.9382 347.5,69.5C 347.833,69.5 348.167,69.5 348.5,69.5C 348.414,70.4959 348.748,71.3292 349.5,72C 351.081,72.7065 352.581,73.5399 354,74.5C 354.399,74.2716 354.565,73.9382 354.5,73.5C 354.833,73.5 355.167,73.5 355.5,73.5C 356.439,76.9467 358.439,78.28 361.5,77.5C 361.833,77.5 362.167,77.5 362.5,77.5C 362.693,80.5701 364.027,81.5701 366.5,80.5C 367.609,80.5569 368.609,80.8902 369.5,81.5C 369.131,83.9935 369.797,84.6602 371.5,83.5C 371.409,85.6977 372.075,86.0311 373.5,84.5C 374.609,84.5569 375.609,84.8902 376.5,85.5C 376.131,87.9935 376.797,88.6602 378.5,87.5C 378.409,89.6977 379.075,90.0311 380.5,88.5C 381.345,91.4122 383.012,92.4122 385.5,91.5C 386.492,91.3284 387.158,91.6618 387.5,92.5C 388.345,95.4122 390.012,96.4122 392.5,95.5C 393.492,95.3284 394.158,95.6618 394.5,96.5C 394.877,98.8241 395.877,99.4908 397.5,98.5C 397.409,100.698 398.075,101.031 399.5,99.5C 400.345,102.412 402.012,103.412 404.5,102.5C 404.409,104.698 405.075,105.031 406.5,103.5C 407.345,106.412 409.012,107.412 411.5,106.5C 411.409,108.698 412.075,109.031 413.5,107.5C 414.345,110.412 416.012,111.412 418.5,110.5C 418.409,112.698 419.075,113.031 420.5,111.5C 421.345,114.412 423.012,115.412 425.5,114.5C 425.409,116.698 426.075,117.031 427.5,115.5C 428.345,118.412 430.012,119.412 432.5,118.5C 433.492,118.328 434.158,118.662 434.5,119.5C 434.877,121.824 435.877,122.491 437.5,121.5C 437.409,123.698 438.075,124.031 439.5,122.5C 440.345,125.412 442.012,126.412 444.5,125.5C 444.409,127.698 445.075,128.031 446.5,126.5C 447.345,129.412 449.012,130.412 451.5,129.5C 452.492,129.328 453.158,129.662 453.5,130.5C 454.345,133.412 456.012,134.412 458.5,133.5C 459.345,136.412 461.012,137.412 463.5,136.5C 463.409,138.698 464.075,139.031 465.5,137.5C 465.987,138.473 466.487,139.473 467,140.5C 468.073,140.799 469.24,140.799 470.5,140.5C 470.409,142.698 471.075,143.031 472.5,141.5C 472.987,142.473 473.487,143.473 474,144.5C 475.073,144.799 476.24,144.799 477.5,144.5C 478.492,144.328 479.158,144.662 479.5,145.5C 479.877,147.824 480.877,148.491 482.5,147.5C 482.409,149.698 483.075,150.031 484.5,148.5C 485.09,149.766 485.59,151.099 486,152.5C 486.417,151.244 487.25,150.577 488.5,150.5C 488.5,152.833 488.5,155.167 488.5,157.5C 487.175,161.276 486.509,165.443 486.5,170C 486.501,174.347 486.834,178.514 487.5,182.5C 487.5,187.833 487.5,193.167 487.5,198.5C 486.195,200.397 485.529,202.731 485.5,205.5C 485.529,208.269 486.195,210.603 487.5,212.5C 488.117,218.598 487.45,224.265 485.5,229.5C 483.067,229.273 481.401,230.273 480.5,232.5C 478.62,232.229 477.287,232.896 476.5,234.5C 476.027,235.906 475.027,236.573 473.5,236.5C 471.067,236.273 469.401,237.273 468.5,239.5C 466.62,239.229 465.287,239.896 464.5,241.5C 464.027,242.906 463.027,243.573 461.5,243.5C 459.067,243.273 457.401,244.273 456.5,246.5C 454.62,246.229 453.287,246.896 452.5,248.5C 452.027,249.906 451.027,250.573 449.5,250.5C 447.067,250.273 445.401,251.273 444.5,253.5C 439.233,254.438 439.233,255.438 444.5,256.5C 445.492,256.328 446.158,256.662 446.5,257.5C 447.659,259.25 449.326,260.25 451.5,260.5C 452.492,260.328 453.158,260.662 453.5,261.5C 453.973,262.906 454.973,263.573 456.5,263.5C 457.492,263.328 458.158,263.662 458.5,264.5C 459.659,266.25 461.326,267.25 463.5,267.5C 464.492,267.328 465.158,267.662 465.5,268.5C 466.659,270.25 468.326,271.25 470.5,271.5C 471.492,271.328 472.158,271.662 472.5,272.5C 473.659,274.25 475.326,275.25 477.5,275.5C 478.659,277.25 480.326,278.25 482.5,278.5C 483.492,278.328 484.158,278.662 484.5,279.5C 484.91,282.431 486.244,283.097 488.5,281.5C 488.5,283.833 488.5,286.167 488.5,288.5C 487.177,291.938 486.51,295.771 486.5,300C 486.501,304.015 486.835,307.849 487.5,311.5C 487.5,311.833 487.5,312.167 487.5,312.5C 486.167,313.167 486.167,313.833 487.5,314.5C 487.5,319.167 487.5,323.833 487.5,328.5C 486.195,330.397 485.529,332.731 485.5,335.5C 485.529,338.269 486.195,340.603 487.5,342.5C 487.5,347.5 487.5,352.5 487.5,357.5C 485.952,357.821 485.285,358.821 485.5,360.5C 483.012,359.588 481.345,360.588 480.5,363.5C 478.576,362.04 476.909,362.374 475.5,364.5C 475.624,365.107 475.957,365.44 476.5,365.5C 476.027,366.906 475.027,367.573 473.5,367.5C 471.244,365.903 469.91,366.569 469.5,369.5C 469.5,370.167 469.167,370.5 468.5,370.5C 465.113,369.487 462.779,370.82 461.5,374.5C 459.244,372.903 457.91,373.569 457.5,376.5C 457.027,377.906 456.027,378.573 454.5,378.5C 452.244,376.903 450.91,377.569 450.5,380.5C 450.5,381.167 450.167,381.5 449.5,381.5C 446.113,380.487 443.779,381.82 442.5,385.5C 440.244,383.903 438.91,384.569 438.5,387.5C 438.027,388.906 437.027,389.573 435.5,389.5C 433.012,388.588 431.345,389.588 430.5,392.5C 427.091,391.518 424.758,392.851 423.5,396.5C 421.41,395.209 420.076,395.876 419.5,398.5C 419.5,399.167 419.167,399.5 418.5,399.5C 416.012,398.588 414.345,399.588 413.5,402.5C 411.806,401.314 410.139,401.481 408.5,403C 409.056,403.383 409.389,403.883 409.5,404.5C 409.027,405.906 408.027,406.573 406.5,406.5C 404.41,405.209 403.076,405.876 402.5,408.5C 402.5,409.167 402.167,409.5 401.5,409.5C 398.091,408.518 395.758,409.851 394.5,413.5C 392.41,412.209 391.076,412.876 390.5,415.5C 390.027,416.906 389.027,417.573 387.5,417.5C 385.012,416.588 383.345,417.588 382.5,420.5C 379.03,419.27 377.03,420.603 376.5,424.5C 376.167,424.5 375.833,424.5 375.5,424.5C 373.41,423.209 372.076,423.876 371.5,426.5C 371.027,427.906 370.027,428.573 368.5,428.5C 365.947,427.349 364.614,428.349 364.5,431.5C 364.167,431.5 363.833,431.5 363.5,431.5C 361.806,430.314 360.139,430.481 358.5,432C 359.056,432.383 359.389,432.883 359.5,433.5C 359.027,434.906 358.027,435.573 356.5,435.5C 354.41,434.209 353.076,434.876 352.5,437.5C 352.5,438.167 352.167,438.5 351.5,438.5C 348.03,437.27 346.03,438.603 345.5,442.5C 345.167,442.5 344.833,442.5 344.5,442.5C 342.402,441.086 341.402,441.752 341.5,444.5C 340.395,445.6 339.062,446.267 337.5,446.5C 334.947,445.349 333.614,446.349 333.5,449.5C 333.167,449.5 332.833,449.5 332.5,449.5C 329.03,448.27 327.03,449.603 326.5,453.5C 326.167,453.5 325.833,453.5 325.5,453.5C 323.402,452.086 322.402,452.752 322.5,455.5C 321.395,456.6 320.062,457.267 318.5,457.5C 316.04,456.366 314.707,457.366 314.5,460.5C 314.167,460.5 313.833,460.5 313.5,460.5C 312.791,459.596 311.791,459.263 310.5,459.5C 310.5,460.5 310.5,461.5 310.5,462.5C 309.395,463.6 308.062,464.267 306.5,464.5C 305.791,463.596 304.791,463.263 303.5,463.5C 303.5,464.5 303.5,465.5 303.5,466.5C 302.833,466.833 302.167,467.167 301.5,467.5C 298.38,466.553 296.38,467.887 295.5,471.5C 295.167,471.5 294.833,471.5 294.5,471.5C 292.668,470.282 291.668,470.949 291.5,473.5C 290.395,474.6 289.062,475.267 287.5,475.5C 285.275,474.668 283.942,475.668 283.5,478.5C 283.167,478.5 282.833,478.5 282.5,478.5C 282.44,477.957 282.107,477.624 281.5,477.5C 279.787,477.879 278.787,478.879 278.5,480.5C 278.027,481.906 277.027,482.573 275.5,482.5C 273.668,481.282 272.668,481.949 272.5,484.5C 271.833,484.833 271.167,485.167 270.5,485.5C 267.439,484.72 265.439,486.053 264.5,489.5C 264.167,489.5 263.833,489.5 263.5,489.5C 261.668,488.282 260.668,488.949 260.5,491.5C 259.395,492.6 258.062,493.267 256.5,493.5C 255.404,489.711 254.737,489.711 254.5,493.5C 253.391,493.443 252.391,493.11 251.5,492.5C 251.238,490.436 250.071,489.103 248,488.5C 247.601,488.728 247.435,489.062 247.5,489.5C 246.391,489.443 245.391,489.11 244.5,488.5C 244.631,487.761 244.464,487.094 244,486.5C 243.31,485.262 242.81,485.262 242.5,486.5C 240.716,486.107 239.05,485.441 237.5,484.5C 237.631,483.761 237.464,483.094 237,482.5C 236.31,481.262 235.81,481.262 235.5,482.5C 234.391,482.443 233.391,482.11 232.5,481.5C 232.238,479.436 231.071,478.103 229,477.5C 228.601,477.728 228.435,478.062 228.5,478.5C 227.391,478.443 226.391,478.11 225.5,477.5C 225.238,475.436 224.071,474.103 222,473.5C 221.601,473.728 221.435,474.062 221.5,474.5C 220.391,474.443 219.391,474.11 218.5,473.5C 218.631,472.761 218.464,472.094 218,471.5C 217.31,470.262 216.81,470.262 216.5,471.5C 215.391,471.443 214.391,471.11 213.5,470.5C 213.238,468.436 212.071,467.103 210,466.5C 209.601,466.728 209.435,467.062 209.5,467.5C 208.391,467.443 207.391,467.11 206.5,466.5C 206.238,464.436 205.071,463.103 203,462.5C 202.601,462.728 202.435,463.062 202.5,463.5C 201.391,463.443 200.391,463.11 199.5,462.5C 199.238,460.436 198.071,459.103 196,458.5C 195.601,458.728 195.435,459.062 195.5,459.5C 194.391,459.443 193.391,459.11 192.5,458.5C 192.238,456.436 191.071,455.103 189,454.5C 188.601,454.728 188.435,455.062 188.5,455.5C 188.167,455.5 187.833,455.5 187.5,455.5C 187.238,453.436 186.071,452.103 184,451.5C 183.601,451.728 183.435,452.062 183.5,452.5C 182.391,452.443 181.391,452.11 180.5,451.5C 180.238,449.436 179.071,448.103 177,447.5C 176.601,447.728 176.435,448.062 176.5,448.5C 175.391,448.443 174.391,448.11 173.5,447.5C 173.238,445.436 172.071,444.103 170,443.5C 169.601,443.728 169.435,444.062 169.5,444.5C 168.391,444.443 167.391,444.11 166.5,443.5C 166.238,441.436 165.071,440.103 163,439.5C 162.601,439.728 162.435,440.062 162.5,440.5C 161.391,440.443 160.391,440.11 159.5,439.5C 159.238,437.436 158.071,436.103 156,435.5C 155.601,435.728 155.435,436.062 155.5,436.5C 154.391,436.443 153.391,436.11 152.5,435.5C 152.307,432.43 150.973,431.43 148.5,432.5C 148.167,432.5 147.833,432.5 147.5,432.5C 147.17,429.891 145.67,428.224 143,427.5C 142.617,428.056 142.117,428.389 141.5,428.5C 141.167,428.5 140.833,428.5 140.5,428.5C 140.354,425.45 139.02,424.45 136.5,425.5C 135.391,425.443 134.391,425.11 133.5,424.5C 133.869,422.007 133.203,421.34 131.5,422.5C 131.591,420.302 130.925,419.969 129.5,421.5C 128.508,421.672 127.842,421.338 127.5,420.5C 127.123,418.176 126.123,417.509 124.5,418.5C 124.591,416.302 123.925,415.969 122.5,417.5C 121.655,414.588 119.988,413.588 117.5,414.5C 116.508,414.672 115.842,414.338 115.5,413.5C 114.655,410.588 112.988,409.588 110.5,410.5C 109.508,410.672 108.842,410.338 108.5,409.5C 108.123,407.176 107.123,406.509 105.5,407.5C 105.591,405.302 104.925,404.969 103.5,406.5C 102.508,406.672 101.842,406.338 101.5,405.5C 101.123,403.176 100.123,402.509 98.5,403.5C 98.5912,401.302 97.9245,400.969 96.5,402.5C 95.6548,399.588 93.9882,398.588 91.5,399.5C 90.5084,399.672 89.8417,399.338 89.5,398.5C 88.6548,395.588 86.9882,394.588 84.5,395.5C 83.5084,395.672 82.8417,395.338 82.5,394.5C 82.1227,392.176 81.1227,391.509 79.5,392.5C 79.5912,390.302 78.9245,389.969 77.5,391.5C 76.5084,391.672 75.8417,391.338 75.5,390.5C 75.1227,388.176 74.1227,387.509 72.5,388.5C 72.5912,386.302 71.9245,385.969 70.5,387.5C 69.6548,384.588 67.9882,383.588 65.5,384.5C 64.5084,384.672 63.8417,384.338 63.5,383.5C 62.6548,380.588 60.9882,379.588 58.5,380.5C 57.5084,380.672 56.8417,380.338 56.5,379.5C 56.1227,377.176 55.1227,376.509 53.5,377.5C 53.5912,375.302 52.9245,374.969 51.5,376.5C 50.6548,373.588 48.9882,372.588 46.5,373.5C 46.5912,371.302 45.9245,370.969 44.5,372.5C 44.0133,371.527 43.5133,370.527 43,369.5C 41.927,369.201 40.7603,369.201 39.5,369.5C 38.5084,369.672 37.8417,369.338 37.5,368.5C 37.0133,367.527 36.5133,366.527 36,365.5C 34.927,365.201 33.7603,365.201 32.5,365.5C 31.5084,365.672 30.8417,365.338 30.5,364.5C 30.1227,362.176 29.1227,361.509 27.5,362.5C 27.5912,360.302 26.9245,359.969 25.5,361.5C 24.9101,360.234 24.4101,358.901 24,357.5C 23.5831,358.756 22.7498,359.423 21.5,359.5C 21.5,356.833 21.5,354.167 21.5,351.5C 22.8248,347.724 23.4915,343.557 23.5,339C 23.499,334.653 23.1657,330.486 22.5,326.5C 22.5,321.167 22.5,315.833 22.5,310.5C 23.8001,308.777 24.4668,306.61 24.5,304C 24.4668,301.39 23.8001,299.223 22.5,297.5C 21.8833,291.402 22.55,285.735 24.5,280.5C 26.9328,280.727 28.5994,279.727 29.5,277.5C 31.9724,277.635 33.3057,276.968 33.5,275.5C 33.9731,274.094 34.9731,273.427 36.5,273.5C 38.3797,273.771 39.713,273.104 40.5,271.5C 40.5,270.833 40.8333,270.5 41.5,270.5C 44.6145,270.445 46.9478,269.112 48.5,266.5C 50.3797,266.771 51.713,266.104 52.5,264.5C 52.9731,263.094 53.9731,262.427 55.5,262.5C 57.9328,262.727 59.5994,261.727 60.5,259.5C 62.3797,259.771 63.713,259.104 64.5,257.5C 64.5,256.833 64.8333,256.5 65.5,256.5C 69.5,255.5 69.5,254.5 65.5,253.5C 64.5084,253.672 63.8417,253.338 63.5,252.5C 62.3406,250.75 60.674,249.75 58.5,249.5C 57.5084,249.672 56.8417,249.338 56.5,248.5C 55.3406,246.75 53.674,245.75 51.5,245.5C 50.5084,245.672 49.8417,245.338 49.5,244.5C 49.0269,243.094 48.0269,242.427 46.5,242.5C 45.5084,242.672 44.8417,242.338 44.5,241.5C 43.3406,239.75 41.674,238.75 39.5,238.5C 38.5084,238.672 37.8417,238.338 37.5,237.5C 36.3406,235.75 34.674,234.75 32.5,234.5C 31.5084,234.672 30.8417,234.338 30.5,233.5C 30.0269,232.094 29.0269,231.427 27.5,231.5C 26.5084,231.672 25.8417,231.338 25.5,230.5C 25.0897,227.569 23.7564,226.903 21.5,228.5C 21.5,225.833 21.5,223.167 21.5,220.5C 22.8248,216.724 23.4915,212.557 23.5,208C 23.499,203.653 23.1657,199.486 22.5,195.5C 22.5,190.5 22.5,185.5 22.5,180.5C 23.8001,178.777 24.4668,176.61 24.5,174C 24.4668,171.39 23.8001,169.223 22.5,167.5C 21.88,161.074 22.5467,155.074 24.5,149.5C 26.9882,150.412 28.6548,149.412 29.5,146.5C 31.4241,147.96 33.0908,147.626 34.5,145.5C 34.3764,144.893 34.0431,144.56 33.5,144.5C 33.9731,143.094 34.9731,142.427 36.5,142.5C 38.7564,144.097 40.0897,143.431 40.5,140.5C 40.5,139.833 40.8333,139.5 41.5,139.5C 44.8872,140.513 47.2205,139.18 48.5,135.5C 50.7564,137.097 52.0897,136.431 52.5,133.5C 52.9731,132.094 53.9731,131.427 55.5,131.5C 57.7564,133.097 59.0897,132.431 59.5,129.5C 59.5,128.833 59.8333,128.5 60.5,128.5C 63.8872,129.513 66.2205,128.18 67.5,124.5C 69.5902,125.791 70.9236,125.124 71.5,122.5C 71.9731,121.094 72.9731,120.427 74.5,120.5C 76.9882,121.412 78.6548,120.412 79.5,117.5C 82.9089,118.482 85.2423,117.149 86.5,113.5C 88.5902,114.791 89.9236,114.124 90.5,111.5C 90.9731,110.094 91.9731,109.427 93.5,109.5C 95.9882,110.412 97.6548,109.412 98.5,106.5C 100.194,107.686 101.861,107.519 103.5,106C 102.944,105.617 102.611,105.117 102.5,104.5C 102.973,103.094 103.973,102.427 105.5,102.5C 107.59,103.791 108.924,103.124 109.5,100.5C 109.5,99.8333 109.833,99.5 110.5,99.5C 113.909,100.482 116.242,99.1489 117.5,95.5C 119.59,96.7908 120.924,96.1242 121.5,93.5C 121.973,92.0937 122.973,91.427 124.5,91.5C 126.59,92.7908 127.924,92.1242 128.5,89.5C 128.5,88.8333 128.833,88.5 129.5,88.5C 132.97,89.73 134.97,88.3966 135.5,84.5C 135.833,84.5 136.167,84.5 136.5,84.5C 138.59,85.7908 139.924,85.1242 140.5,82.5C 140.973,81.0937 141.973,80.427 143.5,80.5C 146.053,81.6511 147.386,80.6511 147.5,77.5C 147.833,77.5 148.167,77.5 148.5,77.5C 151.97,78.73 153.97,77.3966 154.5,73.5C 154.833,73.5 155.167,73.5 155.5,73.5C 157.59,74.7908 158.924,74.1242 159.5,71.5C 159.973,70.0937 160.973,69.427 162.5,69.5C 162.435,69.9382 162.601,70.2716 163,70.5C 164.039,69.7562 164.539,68.7562 164.5,67.5C 164.833,67.5 165.167,67.5 165.5,67.5C 167.598,68.9143 168.598,68.2476 168.5,65.5C 169.605,64.3995 170.938,63.7329 172.5,63.5C 174.598,64.9143 175.598,64.2476 175.5,61.5C 176.167,61.1667 176.833,60.8333 177.5,60.5C 180.97,61.73 182.97,60.3966 183.5,56.5C 183.833,56.5 184.167,56.5 184.5,56.5C 186.598,57.9143 187.598,57.2476 187.5,54.5C 188.605,53.3995 189.938,52.7329 191.5,52.5C 194.053,53.6511 195.386,52.6511 195.5,49.5C 195.833,49.5 196.167,49.5 196.5,49.5C 198.089,50.6211 199.756,50.4544 201.5,49C 200.944,48.6174 200.611,48.1174 200.5,47.5C 200.973,46.0937 201.973,45.427 203.5,45.5C 204.209,46.404 205.209,46.7373 206.5,46.5C 206.5,45.5 206.5,44.5 206.5,43.5C 207.167,43.1667 207.833,42.8333 208.5,42.5C 211.895,43.7834 213.895,42.45 214.5,38.5C 214.833,38.5 215.167,38.5 215.5,38.5C 217.332,39.7181 218.332,39.0514 218.5,36.5C 219.605,35.3995 220.938,34.7329 222.5,34.5C 224.725,35.3321 226.058,34.3321 226.5,31.5C 226.833,31.5 227.167,31.5 227.5,31.5C 230.561,32.28 232.561,30.9467 233.5,27.5C 233.833,27.5 234.167,27.5 234.5,27.5C 236.332,28.7181 237.332,28.0514 237.5,25.5C 238.605,24.3995 239.938,23.7329 241.5,23.5C 243.725,24.3321 245.058,23.3321 245.5,20.5C 245.833,20.5 246.167,20.5 246.5,20.5C 246.56,21.0431 246.893,21.3764 247.5,21.5C 249.213,21.1207 250.213,20.1207 250.5,18.5C 250.973,17.0937 251.973,16.427 253.5,16.5 Z M 411.5,194.5 C 410.508,194.328 409.842,194.662 409.5,195.5C 407.973,195.427 406.973,196.094 406.5,197.5C 405.508,197.328 404.842,197.662 404.5,198.5C 403.508,198.328 402.842,198.662 402.5,199.5C 400.973,199.427 399.973,200.094 399.5,201.5C 398.508,201.328 397.842,201.662 397.5,202.5C 395.566,203.11 393.899,204.11 392.5,205.5C 391.508,205.328 390.842,205.662 390.5,206.5C 388.973,206.427 387.973,207.094 387.5,208.5C 386.508,208.328 385.842,208.662 385.5,209.5C 384.508,209.328 383.842,209.662 383.5,210.5C 380.366,211.901 377.366,213.568 374.5,215.5C 373.583,214.873 372.583,214.539 371.5,214.5C 371.167,213.5 370.5,212.833 369.5,212.5C 368.609,211.89 367.609,211.557 366.5,211.5C 365.564,210.026 364.23,209.026 362.5,208.5C 361.609,207.89 360.609,207.557 359.5,207.5C 358.564,206.026 357.23,205.026 355.5,204.5C 354.609,203.89 353.609,203.557 352.5,203.5C 352.167,202.5 351.5,201.833 350.5,201.5C 348.95,200.559 347.284,199.893 345.5,199.5C 345.167,198.5 344.5,197.833 343.5,197.5C 342.609,196.89 341.609,196.557 340.5,196.5C 339.564,195.026 338.23,194.026 336.5,193.5C 335.609,192.89 334.609,192.557 333.5,192.5C 332.564,191.026 331.23,190.026 329.5,189.5C 328.609,188.89 327.609,188.557 326.5,188.5C 325.564,187.026 324.23,186.026 322.5,185.5C 321.609,184.89 320.609,184.557 319.5,184.5C 319.167,183.5 318.5,182.833 317.5,182.5C 316.609,181.89 315.609,181.557 314.5,181.5C 313.564,180.026 312.23,179.026 310.5,178.5C 309.609,177.89 308.609,177.557 307.5,177.5C 306.564,176.026 305.23,175.026 303.5,174.5C 302.609,173.89 301.609,173.557 300.5,173.5C 300.167,172.5 299.5,171.833 298.5,171.5C 296.95,170.559 295.284,169.893 293.5,169.5C 293.167,168.5 292.5,167.833 291.5,167.5C 290.609,166.89 289.609,166.557 288.5,166.5C 287.564,165.026 286.23,164.026 284.5,163.5C 283.609,162.89 282.609,162.557 281.5,162.5C 280.564,161.026 279.23,160.026 277.5,159.5C 276.609,158.89 275.609,158.557 274.5,158.5C 273.564,157.026 272.23,156.026 270.5,155.5C 269.609,154.89 268.609,154.557 267.5,154.5C 267.167,153.5 266.5,152.833 265.5,152.5C 264.609,151.89 263.609,151.557 262.5,151.5C 261.564,150.026 260.23,149.026 258.5,148.5C 257.609,147.89 256.609,147.557 255.5,147.5C 254.833,146.167 254.167,146.167 253.5,147.5C 251.973,147.427 250.973,148.094 250.5,149.5C 248.847,149.66 247.514,150.326 246.5,151.5C 246.167,151.5 245.833,151.5 245.5,151.5C 244.128,152.512 242.795,153.512 241.5,154.5C 239.938,154.733 238.605,155.4 237.5,156.5C 236.29,156.932 235.29,157.599 234.5,158.5C 234.167,158.5 233.833,158.5 233.5,158.5C 231.463,159.846 229.463,161.18 227.5,162.5C 227.167,162.5 226.833,162.5 226.5,162.5C 225.128,163.512 223.795,164.512 222.5,165.5C 220.938,165.733 219.605,166.4 218.5,167.5C 217.29,167.932 216.29,168.599 215.5,169.5C 215.167,169.5 214.833,169.5 214.5,169.5C 212.463,170.846 210.463,172.18 208.5,173.5C 207.833,173.833 207.167,174.167 206.5,174.5C 205.29,174.932 204.29,175.599 203.5,176.5C 201.973,176.427 200.973,177.094 200.5,178.5C 198.847,178.66 197.514,179.326 196.5,180.5C 196.167,180.5 195.833,180.5 195.5,180.5C 194.128,181.512 192.795,182.512 191.5,183.5C 189.938,183.733 188.605,184.4 187.5,185.5C 186.29,185.932 185.29,186.599 184.5,187.5C 184.167,187.5 183.833,187.5 183.5,187.5C 181.463,188.846 179.463,190.18 177.5,191.5C 176.833,191.833 176.167,192.167 175.5,192.5C 174.29,192.932 173.29,193.599 172.5,194.5C 170.938,194.733 169.605,195.4 168.5,196.5C 167.29,196.932 166.29,197.599 165.5,198.5C 163.973,198.427 162.973,199.094 162.5,200.5C 160.847,200.66 159.514,201.326 158.5,202.5C 158.167,202.5 157.833,202.5 157.5,202.5C 155.463,203.846 153.463,205.18 151.5,206.5C 150.833,206.5 150.5,206.833 150.5,207.5C 148.847,207.66 147.514,208.326 146.5,209.5C 146.167,209.5 145.833,209.5 145.5,209.5C 143.463,210.846 141.463,212.18 139.5,213.5C 138.833,213.5 138.5,213.833 138.5,214.5C 137.5,214.5 136.5,214.5 135.5,214.5C 122.167,206.833 108.833,199.167 95.5,191.5C 95.1583,190.662 94.4916,190.328 93.5,190.5C 92.4019,189.603 92.4019,188.77 93.5,188C 147.01,157.15 200.51,126.317 254,95.5C 308.566,126.867 363.066,158.367 417.5,190C 415.316,191.363 413.316,192.863 411.5,194.5 Z M 252.5,226.5 C 269.59,235.548 286.59,244.881 303.5,254.5C 303.611,255.117 303.944,255.617 304.5,256C 303.584,256.278 302.918,256.778 302.5,257.5C 301.833,257.833 301.167,258.167 300.5,258.5C 299.29,258.932 298.29,259.599 297.5,260.5C 295.973,260.427 294.973,261.094 294.5,262.5C 292.847,262.66 291.514,263.326 290.5,264.5C 289.508,264.328 288.842,264.662 288.5,265.5C 287.29,265.932 286.29,266.599 285.5,267.5C 283.973,267.427 282.973,268.094 282.5,269.5C 280.847,269.66 279.514,270.326 278.5,271.5C 277.508,271.328 276.842,271.662 276.5,272.5C 275.29,272.932 274.29,273.599 273.5,274.5C 271.938,274.733 270.605,275.4 269.5,276.5C 268.29,276.932 267.29,277.599 266.5,278.5C 265.508,278.328 264.842,278.662 264.5,279.5C 263.29,279.932 262.29,280.599 261.5,281.5C 259.429,283.1 257.095,283.6 254.5,283C 238.436,273.303 222.102,264.136 205.5,255.5C 205.782,254.222 206.449,253.222 207.5,252.5C 209.027,252.573 210.027,251.906 210.5,250.5C 212.153,250.34 213.486,249.674 214.5,248.5C 215.492,248.672 216.158,248.338 216.5,247.5C 218.368,246.737 220.035,245.737 221.5,244.5C 222.167,244.167 222.833,243.833 223.5,243.5C 224.71,243.068 225.71,242.401 226.5,241.5C 228.027,241.573 229.027,240.906 229.5,239.5C 231.153,239.34 232.486,238.674 233.5,237.5C 234.492,237.672 235.158,237.338 235.5,236.5C 237.368,235.737 239.035,234.737 240.5,233.5C 241.167,233.167 241.833,232.833 242.5,232.5C 243.71,232.068 244.71,231.401 245.5,230.5C 247.062,230.267 248.395,229.6 249.5,228.5C 250.71,228.068 251.71,227.401 252.5,226.5 Z M 136.5,294.5 C 137.436,295.974 138.77,296.974 140.5,297.5C 141.391,298.11 142.391,298.443 143.5,298.5C 143.833,299.5 144.5,300.167 145.5,300.5C 147.05,301.441 148.716,302.107 150.5,302.5C 150.833,303.5 151.5,304.167 152.5,304.5C 153.391,305.11 154.391,305.443 155.5,305.5C 156.436,306.974 157.77,307.974 159.5,308.5C 160.391,309.11 161.391,309.443 162.5,309.5C 162.833,310.5 163.5,311.167 164.5,311.5C 165.391,312.11 166.391,312.443 167.5,312.5C 168.436,313.974 169.77,314.974 171.5,315.5C 172.391,316.11 173.391,316.443 174.5,316.5C 174.833,317.5 175.5,318.167 176.5,318.5C 177.391,319.11 178.391,319.443 179.5,319.5C 180.436,320.974 181.77,321.974 183.5,322.5C 184.391,323.11 185.391,323.443 186.5,323.5C 187.436,324.974 188.77,325.974 190.5,326.5C 191.391,327.11 192.391,327.443 193.5,327.5C 193.833,328.5 194.5,329.167 195.5,329.5C 197.05,330.441 198.716,331.107 200.5,331.5C 200.833,332.5 201.5,333.167 202.5,333.5C 203.391,334.11 204.391,334.443 205.5,334.5C 206.436,335.974 207.77,336.974 209.5,337.5C 210.391,338.11 211.391,338.443 212.5,338.5C 213.436,339.974 214.77,340.974 216.5,341.5C 217.391,342.11 218.391,342.443 219.5,342.5C 219.833,343.5 220.5,344.167 221.5,344.5C 223.05,345.441 224.716,346.107 226.5,346.5C 226.833,347.5 227.5,348.167 228.5,348.5C 229.391,349.11 230.391,349.443 231.5,349.5C 232.436,350.974 233.77,351.974 235.5,352.5C 236.391,353.11 237.391,353.443 238.5,353.5C 239.436,354.974 240.77,355.974 242.5,356.5C 243.391,357.11 244.391,357.443 245.5,357.5C 245.833,358.5 246.5,359.167 247.5,359.5C 248.391,360.11 249.391,360.443 250.5,360.5C 253.742,364.327 257.075,364.327 260.5,360.5C 260.833,360.5 261.167,360.5 261.5,360.5C 262.872,359.488 264.205,358.488 265.5,357.5C 267.062,357.267 268.395,356.6 269.5,355.5C 270.71,355.068 271.71,354.401 272.5,353.5C 272.833,353.5 273.167,353.5 273.5,353.5C 275.537,352.154 277.537,350.82 279.5,349.5C 280.167,349.167 280.833,348.833 281.5,348.5C 282.71,348.068 283.71,347.401 284.5,346.5C 284.833,346.5 285.167,346.5 285.5,346.5C 287.537,345.154 289.537,343.82 291.5,342.5C 292.167,342.167 292.833,341.833 293.5,341.5C 294.71,341.068 295.71,340.401 296.5,339.5C 298.027,339.573 299.027,338.906 299.5,337.5C 301.153,337.34 302.486,336.674 303.5,335.5C 303.833,335.5 304.167,335.5 304.5,335.5C 305.872,334.488 307.205,333.488 308.5,332.5C 310.062,332.267 311.395,331.6 312.5,330.5C 313.71,330.068 314.71,329.401 315.5,328.5C 315.833,328.5 316.167,328.5 316.5,328.5C 317.872,327.488 319.205,326.488 320.5,325.5C 322.062,325.267 323.395,324.6 324.5,323.5C 325.71,323.068 326.71,322.401 327.5,321.5C 327.833,321.5 328.167,321.5 328.5,321.5C 330.537,320.154 332.537,318.82 334.5,317.5C 335.167,317.167 335.833,316.833 336.5,316.5C 337.71,316.068 338.71,315.401 339.5,314.5C 339.833,314.5 340.167,314.5 340.5,314.5C 342.537,313.154 344.537,311.82 346.5,310.5C 347.167,310.5 347.5,310.167 347.5,309.5C 349.153,309.34 350.486,308.674 351.5,307.5C 353.027,307.573 354.027,306.906 354.5,305.5C 356.153,305.34 357.486,304.674 358.5,303.5C 358.833,303.5 359.167,303.5 359.5,303.5C 360.872,302.488 362.205,301.488 363.5,300.5C 363.833,300.5 364.167,300.5 364.5,300.5C 365.5,300.167 366.167,299.5 366.5,298.5C 368.153,298.34 369.486,297.674 370.5,296.5C 370.833,296.5 371.167,296.5 371.5,296.5C 372.391,295.89 373.391,295.557 374.5,295.5C 387.798,303.151 401.131,310.818 414.5,318.5C 414.842,319.338 415.508,319.672 416.5,319.5C 417.598,320.397 417.598,321.23 416.5,322C 363.293,353.102 309.959,383.935 256.5,414.5C 201.469,383.637 146.803,352.137 92.5,320C 93.5707,319.148 94.5707,318.315 95.5,317.5C 96.4916,317.672 97.1583,317.338 97.5,316.5C 99.0269,316.573 100.027,315.906 100.5,314.5C 101.492,314.672 102.158,314.338 102.5,313.5C 104.434,312.89 106.101,311.89 107.5,310.5C 108.492,310.672 109.158,310.338 109.5,309.5C 111.027,309.573 112.027,308.906 112.5,307.5C 113.492,307.672 114.158,307.338 114.5,306.5C 115.492,306.672 116.158,306.338 116.5,305.5C 117.71,305.068 118.71,304.401 119.5,303.5C 120.492,303.672 121.158,303.338 121.5,302.5C 123.434,301.89 125.101,300.89 126.5,299.5C 127.492,299.672 128.158,299.338 128.5,298.5C 130.027,298.573 131.027,297.906 131.5,296.5C 132.492,296.672 133.158,296.338 133.5,295.5C 134.609,295.443 135.609,295.11 136.5,294.5 Z"/></g>
<g><path style="opacity:0.115" fill="#636dcb" d="M 258.5,17.5 C 260.23,18.0256 261.564,19.0256 262.5,20.5C 262.565,20.9382 262.399,21.2716 262,21.5C 259.929,20.8971 258.762,19.5638 258.5,17.5 Z"/></g>
<g><path style="opacity:0.216" fill="#636dcb" d="M 250.5,18.5 C 250.213,20.1207 249.213,21.1207 247.5,21.5C 246.893,21.3764 246.56,21.0431 246.5,20.5C 247.514,19.3263 248.847,18.6596 250.5,18.5 Z"/></g>
<g><path style="opacity:0.175" fill="#636dcb" d="M 245.5,20.5 C 245.058,23.3321 243.725,24.3321 241.5,23.5C 242.795,22.5116 244.128,21.5116 245.5,20.5 Z"/></g>
<g><path style="opacity:0.101" fill="#636dcb" d="M 265.5,21.5 C 266.5,21.8333 267.167,22.5 267.5,23.5C 267.19,24.7383 266.69,24.7383 266,23.5C 265.536,22.9056 265.369,22.2389 265.5,21.5 Z"/></g>
<g><path style="opacity:0.169" fill="#636dcb" d="M 237.5,25.5 C 237.332,28.0514 236.332,28.7181 234.5,27.5C 235.29,26.5987 236.29,25.9321 237.5,25.5 Z"/></g>
<g><path style="opacity:0.1" fill="#636dcb" d="M 272.5,25.5 C 273.5,25.8333 274.167,26.5 274.5,27.5C 274.19,28.7383 273.69,28.7383 273,27.5C 272.536,26.9056 272.369,26.2389 272.5,25.5 Z"/></g>
<g><path style="opacity:0.18" fill="#636dcb" d="M 233.5,27.5 C 232.561,30.9467 230.561,32.28 227.5,31.5C 229.463,30.1798 231.463,28.8465 233.5,27.5 Z"/></g>
<g><path style="opacity:0.117" fill="#636dcb" d="M 277.5,28.5 C 279.23,29.0256 280.564,30.0256 281.5,31.5C 281.565,31.9382 281.399,32.2716 281,32.5C 278.929,31.8971 277.762,30.5638 277.5,28.5 Z"/></g>
<g><path style="opacity:0.148" fill="#636dcb" d="M 226.5,31.5 C 226.058,34.3321 224.725,35.3321 222.5,34.5C 223.795,33.5116 225.128,32.5116 226.5,31.5 Z"/></g>
<g><path style="opacity:0.118" fill="#636dcb" d="M 284.5,32.5 C 286.23,33.0256 287.564,34.0256 288.5,35.5C 288.565,35.9382 288.399,36.2716 288,36.5C 285.929,35.8971 284.762,34.5638 284.5,32.5 Z"/></g>
<g><path style="opacity:0.171" fill="#636dcb" d="M 218.5,36.5 C 218.332,39.0514 217.332,39.7181 215.5,38.5C 216.29,37.5987 217.29,36.9321 218.5,36.5 Z"/></g>
<g><path style="opacity:0.101" fill="#636dcb" d="M 291.5,36.5 C 292.5,36.8333 293.167,37.5 293.5,38.5C 293.19,39.7383 292.69,39.7383 292,38.5C 291.536,37.9056 291.369,37.2389 291.5,36.5 Z"/></g>
<g><path style="opacity:0.289" fill="#636dcb" d="M 214.5,38.5 C 213.895,42.45 211.895,43.7834 208.5,42.5C 210.463,41.1798 212.463,39.8465 214.5,38.5 Z"/></g>
<g><path style="opacity:0.118" fill="#636dcb" d="M 296.5,39.5 C 298.23,40.0256 299.564,41.0256 300.5,42.5C 300.565,42.9382 300.399,43.2716 300,43.5C 297.929,42.8971 296.762,41.5638 296.5,39.5 Z"/></g>
<g><path style="opacity:0.28" fill="#636dcb" d="M 206.5,43.5 C 206.5,44.5 206.5,45.5 206.5,46.5C 205.209,46.7373 204.209,46.404 203.5,45.5C 204.29,44.5987 205.29,43.9321 206.5,43.5 Z"/></g>
<g><path style="opacity:0.114" fill="#636dcb" d="M 303.5,43.5 C 305.795,44.4746 307.795,45.8079 309.5,47.5C 309.565,47.9382 309.399,48.2716 309,48.5C 307.581,47.5399 306.081,46.7065 304.5,46C 303.748,45.3292 303.414,44.4959 303.5,43.5 Z"/></g>
<g><path style="opacity:0.362" fill="#636dcb" d="M 200.5,47.5 C 200.611,48.1174 200.944,48.6174 201.5,49C 199.756,50.4544 198.089,50.6211 196.5,49.5C 197.514,48.3263 198.847,47.6596 200.5,47.5 Z"/></g>
<g><path style="opacity:0.119" fill="#636dcb" d="M 310.5,47.5 C 312.23,48.0256 313.564,49.0256 314.5,50.5C 314.565,50.9382 314.399,51.2716 314,51.5C 311.929,50.8971 310.762,49.5638 310.5,47.5 Z"/></g>
<g><path style="opacity:0.245" fill="#636dcb" d="M 195.5,49.5 C 195.386,52.6511 194.053,53.6511 191.5,52.5C 192.795,51.5116 194.128,50.5116 195.5,49.5 Z"/></g>
<g><path style="opacity:0.103" fill="#636dcb" d="M 317.5,51.5 C 318.872,52.5116 320.205,53.5116 321.5,54.5C 321.565,54.9382 321.399,55.2716 321,55.5C 318.929,54.8971 317.762,53.5638 317.5,51.5 Z"/></g>
<g><path style="opacity:0.299" fill="#636dcb" d="M 187.5,54.5 C 187.598,57.2476 186.598,57.9143 184.5,56.5C 185.29,55.5987 186.29,54.9321 187.5,54.5 Z"/></g>
<g><path style="opacity:0.103" fill="#636dcb" d="M 324.5,55.5 C 325.872,56.5116 327.205,57.5116 328.5,58.5C 328.565,58.9382 328.399,59.2716 328,59.5C 325.929,58.8971 324.762,57.5638 324.5,55.5 Z"/></g>
<g><path style="opacity:0.3" fill="#636dcb" d="M 183.5,56.5 C 182.97,60.3966 180.97,61.73 177.5,60.5C 179.463,59.1798 181.463,57.8465 183.5,56.5 Z"/></g>
<g><path style="opacity:0.121" fill="#636dcb" d="M 329.5,58.5 C 331.23,59.0256 332.564,60.0256 333.5,61.5C 333.565,61.9382 333.399,62.2716 333,62.5C 330.929,61.8971 329.762,60.5638 329.5,58.5 Z"/></g>
<g><path style="opacity:0.3" fill="#636dcb" d="M 175.5,61.5 C 175.598,64.2476 174.598,64.9143 172.5,63.5C 173.29,62.5987 174.29,61.9321 175.5,61.5 Z"/></g>
<g><path style="opacity:0.121" fill="#636dcb" d="M 336.5,62.5 C 338.23,63.0256 339.564,64.0256 340.5,65.5C 340.565,65.9382 340.399,66.2716 340,66.5C 337.929,65.8971 336.762,64.5638 336.5,62.5 Z"/></g>
<g><path style="opacity:0.299" fill="#636dcb" d="M 168.5,65.5 C 168.598,68.2476 167.598,68.9143 165.5,67.5C 166.29,66.5987 167.29,65.9321 168.5,65.5 Z"/></g>
<g><path style="opacity:0.104" fill="#636dcb" d="M 343.5,66.5 C 344.872,67.5116 346.205,68.5116 347.5,69.5C 347.565,69.9382 347.399,70.2716 347,70.5C 344.929,69.8971 343.762,68.5638 343.5,66.5 Z"/></g>
<g><path style="opacity:0.107" fill="#636dcb" d="M 164.5,67.5 C 164.539,68.7562 164.039,69.7562 163,70.5C 162.601,70.2716 162.435,69.9382 162.5,69.5C 162.833,68.5 163.5,67.8333 164.5,67.5 Z"/></g>
<g><path style="opacity:0.117" fill="#636dcb" d="M 348.5,69.5 C 350.795,70.4746 352.795,71.8079 354.5,73.5C 354.565,73.9382 354.399,74.2716 354,74.5C 352.581,73.5399 351.081,72.7065 349.5,72C 348.748,71.3292 348.414,70.4959 348.5,69.5 Z"/></g>
<g><path style="opacity:0.269" fill="#636dcb" d="M 159.5,71.5 C 158.924,74.1242 157.59,74.7908 155.5,73.5C 156.514,72.3263 157.847,71.6596 159.5,71.5 Z"/></g>
<g><path style="opacity:0.301" fill="#636dcb" d="M 154.5,73.5 C 153.97,77.3966 151.97,78.73 148.5,77.5C 150.463,76.1798 152.463,74.8465 154.5,73.5 Z"/></g>
<g><path style="opacity:0.187" fill="#636dcb" d="M 355.5,73.5 C 357.795,74.4746 359.795,75.8079 361.5,77.5C 358.439,78.28 356.439,76.9467 355.5,73.5 Z"/></g>
<g><path style="opacity:0.246" fill="#636dcb" d="M 147.5,77.5 C 147.386,80.6511 146.053,81.6511 143.5,80.5C 144.795,79.5116 146.128,78.5116 147.5,77.5 Z"/></g>
<g><path style="opacity:0.211" fill="#636dcb" d="M 362.5,77.5 C 364.23,78.0256 365.564,79.0256 366.5,80.5C 364.027,81.5701 362.693,80.5701 362.5,77.5 Z"/></g>
<g><path style="opacity:0.186" fill="#636dcb" d="M 369.5,81.5 C 370.5,81.8333 371.167,82.5 371.5,83.5C 369.797,84.6602 369.131,83.9935 369.5,81.5 Z"/></g>
<g><path style="opacity:0.271" fill="#636dcb" d="M 140.5,82.5 C 139.924,85.1242 138.59,85.7908 136.5,84.5C 137.514,83.3263 138.847,82.6596 140.5,82.5 Z"/></g>
<g><path style="opacity:0.225" fill="#636dcb" d="M 371.5,83.5 C 372.492,83.3284 373.158,83.6618 373.5,84.5C 372.075,86.0311 371.409,85.6977 371.5,83.5 Z"/></g>
<g><path style="opacity:0.301" fill="#636dcb" d="M 135.5,84.5 C 134.97,88.3966 132.97,89.73 129.5,88.5C 131.463,87.1798 133.463,85.8465 135.5,84.5 Z"/></g>
<g><path style="opacity:0.185" fill="#636dcb" d="M 376.5,85.5 C 377.5,85.8333 378.167,86.5 378.5,87.5C 376.797,88.6602 376.131,87.9935 376.5,85.5 Z"/></g>
<g><path style="opacity:0.226" fill="#636dcb" d="M 378.5,87.5 C 379.492,87.3284 380.158,87.6618 380.5,88.5C 379.075,90.0311 378.409,89.6977 378.5,87.5 Z"/></g>
<g><path style="opacity:0.195" fill="#636dcb" d="M 380.5,88.5 C 382.674,88.7497 384.341,89.7497 385.5,91.5C 383.012,92.4122 381.345,91.4122 380.5,88.5 Z"/></g>
<g><path style="opacity:0.271" fill="#636dcb" d="M 128.5,89.5 C 127.924,92.1242 126.59,92.7908 124.5,91.5C 125.514,90.3263 126.847,89.6596 128.5,89.5 Z"/></g>
<g><path style="opacity:0.195" fill="#636dcb" d="M 387.5,92.5 C 389.674,92.7497 391.341,93.7497 392.5,95.5C 390.012,96.4122 388.345,95.4122 387.5,92.5 Z"/></g>
<g><path style="opacity:0.271" fill="#636dcb" d="M 121.5,93.5 C 120.924,96.1242 119.59,96.7908 117.5,95.5C 118.514,94.3263 119.847,93.6596 121.5,93.5 Z"/></g>
<g><path style="opacity:0.285" fill="#636dcb" d="M 117.5,95.5 C 116.242,99.1489 113.909,100.482 110.5,99.5C 112.663,97.9172 114.996,96.5839 117.5,95.5 Z"/></g>
<g><path style="opacity:0.161" fill="#636dcb" d="M 394.5,96.5 C 396.027,96.427 397.027,97.0937 397.5,98.5C 395.877,99.4908 394.877,98.8241 394.5,96.5 Z"/></g>
<g><path style="opacity:0.227" fill="#636dcb" d="M 397.5,98.5 C 398.492,98.3284 399.158,98.6618 399.5,99.5C 398.075,101.031 397.409,100.698 397.5,98.5 Z"/></g>
<g><path style="opacity:0.195" fill="#636dcb" d="M 399.5,99.5 C 401.674,99.7497 403.341,100.75 404.5,102.5C 402.012,103.412 400.345,102.412 399.5,99.5 Z"/></g>
<g><path style="opacity:0.272" fill="#636dcb" d="M 109.5,100.5 C 108.924,103.124 107.59,103.791 105.5,102.5C 106.514,101.326 107.847,100.66 109.5,100.5 Z"/></g>
<g><path style="opacity:0.229" fill="#636dcb" d="M 404.5,102.5 C 405.492,102.328 406.158,102.662 406.5,103.5C 405.075,105.031 404.409,104.698 404.5,102.5 Z"/></g>
<g><path style="opacity:0.195" fill="#636dcb" d="M 406.5,103.5 C 408.674,103.75 410.341,104.75 411.5,106.5C 409.012,107.412 407.345,106.412 406.5,103.5 Z"/></g>
<g><path style="opacity:0.386" fill="#636dcb" d="M 102.5,104.5 C 102.611,105.117 102.944,105.617 103.5,106C 101.861,107.519 100.194,107.686 98.5,106.5C 99.5137,105.326 100.847,104.66 102.5,104.5 Z"/></g>
<g><path style="opacity:0.247" fill="#636dcb" d="M 98.5,106.5 C 97.6548,109.412 95.9882,110.412 93.5,109.5C 94.8993,108.11 96.5659,107.11 98.5,106.5 Z"/></g>
<g><path style="opacity:0.23" fill="#636dcb" d="M 411.5,106.5 C 412.492,106.328 413.158,106.662 413.5,107.5C 412.075,109.031 411.409,108.698 411.5,106.5 Z"/></g>
<g><path style="opacity:0.195" fill="#636dcb" d="M 413.5,107.5 C 415.674,107.75 417.341,108.75 418.5,110.5C 416.012,111.412 414.345,110.412 413.5,107.5 Z"/></g>
<g><path style="opacity:0.231" fill="#636dcb" d="M 418.5,110.5 C 419.492,110.328 420.158,110.662 420.5,111.5C 419.075,113.031 418.409,112.698 418.5,110.5 Z"/></g>
<g><path style="opacity:0.273" fill="#636dcb" d="M 90.5,111.5 C 89.9236,114.124 88.5902,114.791 86.5,113.5C 87.5137,112.326 88.847,111.66 90.5,111.5 Z"/></g>
<g><path style="opacity:0.196" fill="#636dcb" d="M 420.5,111.5 C 422.674,111.75 424.341,112.75 425.5,114.5C 423.012,115.412 421.345,114.412 420.5,111.5 Z"/></g>
<g><path style="opacity:0.285" fill="#636dcb" d="M 86.5,113.5 C 85.2423,117.149 82.9089,118.482 79.5,117.5C 81.6626,115.917 83.9959,114.584 86.5,113.5 Z"/></g>
<g><path style="opacity:0.231" fill="#636dcb" d="M 425.5,114.5 C 426.492,114.328 427.158,114.662 427.5,115.5C 426.075,117.031 425.409,116.698 425.5,114.5 Z"/></g>
<g><path style="opacity:0.195" fill="#636dcb" d="M 427.5,115.5 C 429.674,115.75 431.341,116.75 432.5,118.5C 430.012,119.412 428.345,118.412 427.5,115.5 Z"/></g>
<g><path style="opacity:0.224" fill="#636dcb" d="M 79.5,117.5 C 78.6548,120.412 76.9882,121.412 74.5,120.5C 75.8993,119.11 77.5659,118.11 79.5,117.5 Z"/></g>
<g><path style="opacity:0.161" fill="#636dcb" d="M 434.5,119.5 C 436.027,119.427 437.027,120.094 437.5,121.5C 435.877,122.491 434.877,121.824 434.5,119.5 Z"/></g>
<g><path style="opacity:0.231" fill="#636dcb" d="M 437.5,121.5 C 438.492,121.328 439.158,121.662 439.5,122.5C 438.075,124.031 437.409,123.698 437.5,121.5 Z"/></g>
<g><path style="opacity:0.273" fill="#636dcb" d="M 71.5,122.5 C 70.9236,125.124 69.5902,125.791 67.5,124.5C 68.5137,123.326 69.847,122.66 71.5,122.5 Z"/></g>
<g><path style="opacity:0.196" fill="#636dcb" d="M 439.5,122.5 C 441.674,122.75 443.341,123.75 444.5,125.5C 442.012,126.412 440.345,125.412 439.5,122.5 Z"/></g>
<g><path style="opacity:0.27" fill="#636dcb" d="M 67.5,124.5 C 66.2205,128.18 63.8872,129.513 60.5,128.5C 62.6626,126.917 64.9959,125.584 67.5,124.5 Z"/></g>
<g><path style="opacity:0.233" fill="#636dcb" d="M 444.5,125.5 C 445.492,125.328 446.158,125.662 446.5,126.5C 445.075,128.031 444.409,127.698 444.5,125.5 Z"/></g>
<g><path style="opacity:0.196" fill="#636dcb" d="M 446.5,126.5 C 448.674,126.75 450.341,127.75 451.5,129.5C 449.012,130.412 447.345,129.412 446.5,126.5 Z"/></g>
<g><path style="opacity:0.238" fill="#636dcb" d="M 59.5,129.5 C 59.0897,132.431 57.7564,133.097 55.5,131.5C 56.5137,130.326 57.847,129.66 59.5,129.5 Z"/></g>
<g><path style="opacity:0.196" fill="#636dcb" d="M 453.5,130.5 C 455.674,130.75 457.341,131.75 458.5,133.5C 456.012,134.412 454.345,133.412 453.5,130.5 Z"/></g>
<g><path style="opacity:0.238" fill="#636dcb" d="M 52.5,133.5 C 52.0897,136.431 50.7564,137.097 48.5,135.5C 49.5137,134.326 50.847,133.66 52.5,133.5 Z"/></g>
<g><path style="opacity:0.196" fill="#636dcb" d="M 458.5,133.5 C 460.674,133.75 462.341,134.75 463.5,136.5C 461.012,137.412 459.345,136.412 458.5,133.5 Z"/></g>
<g><path style="opacity:0.27" fill="#636dcb" d="M 48.5,135.5 C 47.2205,139.18 44.8872,140.513 41.5,139.5C 43.6626,137.917 45.9959,136.584 48.5,135.5 Z"/></g>
<g><path style="opacity:0.233" fill="#636dcb" d="M 463.5,136.5 C 464.492,136.328 465.158,136.662 465.5,137.5C 464.075,139.031 463.409,138.698 463.5,136.5 Z"/></g>
<g><path style="opacity:0.174" fill="#636dcb" d="M 465.5,137.5 C 467.674,137.75 469.341,138.75 470.5,140.5C 469.24,140.799 468.073,140.799 467,140.5C 466.487,139.473 465.987,138.473 465.5,137.5 Z"/></g>
<g><path style="opacity:0.239" fill="#636dcb" d="M 40.5,140.5 C 40.0897,143.431 38.7564,144.097 36.5,142.5C 37.5137,141.326 38.847,140.66 40.5,140.5 Z"/></g>
<g><path style="opacity:0.234" fill="#636dcb" d="M 470.5,140.5 C 471.492,140.328 472.158,140.662 472.5,141.5C 471.075,143.031 470.409,142.698 470.5,140.5 Z"/></g>
<g><path style="opacity:0.175" fill="#636dcb" d="M 472.5,141.5 C 474.674,141.75 476.341,142.75 477.5,144.5C 476.24,144.799 475.073,144.799 474,144.5C 473.487,143.473 472.987,142.473 472.5,141.5 Z"/></g>
<g><path style="opacity:0.364" fill="#636dcb" d="M 33.5,144.5 C 34.0431,144.56 34.3764,144.893 34.5,145.5C 33.0908,147.626 31.4241,147.96 29.5,146.5C 30.5137,145.326 31.847,144.66 33.5,144.5 Z"/></g>
<g><path style="opacity:0.159" fill="#636dcb" d="M 479.5,145.5 C 481.027,145.427 482.027,146.094 482.5,147.5C 480.877,148.491 479.877,147.824 479.5,145.5 Z"/></g>
<g><path style="opacity:0.249" fill="#636dcb" d="M 29.5,146.5 C 28.6548,149.412 26.9882,150.412 24.5,149.5C 25.8993,148.11 27.5659,147.11 29.5,146.5 Z"/></g>
<g><path style="opacity:0.386" fill="#636dcb" d="M 255.5,147.5 C 254.833,150.167 254.167,150.167 253.5,147.5C 254.167,146.167 254.833,146.167 255.5,147.5 Z"/></g>
<g><path style="opacity:0.234" fill="#636dcb" d="M 482.5,147.5 C 483.492,147.328 484.158,147.662 484.5,148.5C 483.075,150.031 482.409,149.698 482.5,147.5 Z"/></g>
<g><path style="opacity:0.174" fill="#636dcb" d="M 258.5,148.5 C 260.23,149.026 261.564,150.026 262.5,151.5C 260.027,151.912 258.694,150.912 258.5,148.5 Z"/></g>
<g><path style="opacity:0.26" fill="#636dcb" d="M 484.5,148.5 C 486.153,148.66 487.486,149.326 488.5,150.5C 487.25,150.577 486.417,151.244 486,152.5C 485.59,151.099 485.09,149.766 484.5,148.5 Z"/></g>
<g><path style="opacity:0.337" fill="#636dcb" d="M 250.5,149.5 C 249.805,151.85 248.472,152.517 246.5,151.5C 247.514,150.326 248.847,149.66 250.5,149.5 Z"/></g>
<g><path style="opacity:0.269" fill="#636dcb" d="M 245.5,151.5 C 245.09,154.292 243.756,155.292 241.5,154.5C 242.795,153.512 244.128,152.512 245.5,151.5 Z"/></g>
<g><path style="opacity:0.12" fill="#636dcb" d="M 265.5,152.5 C 266.5,152.833 267.167,153.5 267.5,154.5C 266.167,154.5 265.5,153.833 265.5,152.5 Z"/></g>
<g><path style="opacity:0.175" fill="#636dcb" d="M 270.5,155.5 C 272.23,156.026 273.564,157.026 274.5,158.5C 272.027,158.912 270.694,157.912 270.5,155.5 Z"/></g>
<g><path style="opacity:0.278" fill="#636dcb" d="M 237.5,156.5 C 237.368,159.007 236.368,159.674 234.5,158.5C 235.29,157.599 236.29,156.932 237.5,156.5 Z"/></g>
<g><path style="opacity:0.192" fill="#636dcb" d="M 488.5,157.5 C 488.826,166.017 488.493,174.35 487.5,182.5C 486.834,178.514 486.501,174.347 486.5,170C 486.509,165.443 487.175,161.276 488.5,157.5 Z"/></g>
<g><path style="opacity:0.291" fill="#636dcb" d="M 233.5,158.5 C 232.603,161.929 230.603,163.262 227.5,162.5C 229.463,161.18 231.463,159.846 233.5,158.5 Z"/></g>
<g><path style="opacity:0.175" fill="#636dcb" d="M 277.5,159.5 C 279.23,160.026 280.564,161.026 281.5,162.5C 279.027,162.912 277.694,161.912 277.5,159.5 Z"/></g>
<g><path style="opacity:0.246" fill="#636dcb" d="M 226.5,162.5 C 226.09,165.292 224.756,166.292 222.5,165.5C 223.795,164.512 225.128,163.512 226.5,162.5 Z"/></g>
<g><path style="opacity:0.175" fill="#636dcb" d="M 284.5,163.5 C 286.23,164.026 287.564,165.026 288.5,166.5C 286.027,166.912 284.694,165.912 284.5,163.5 Z"/></g>
<g><path style="opacity:0.462" fill="#636dcb" d="M 22.5,167.5 C 23.8001,169.223 24.4668,171.39 24.5,174C 24.4668,176.61 23.8001,178.777 22.5,180.5C 22.5,176.167 22.5,171.833 22.5,167.5 Z"/></g>
<g><path style="opacity:0.278" fill="#636dcb" d="M 218.5,167.5 C 218.368,170.007 217.368,170.674 215.5,169.5C 216.29,168.599 217.29,167.932 218.5,167.5 Z"/></g>
<g><path style="opacity:0.12" fill="#636dcb" d="M 291.5,167.5 C 292.5,167.833 293.167,168.5 293.5,169.5C 292.167,169.5 291.5,168.833 291.5,167.5 Z"/></g>
<g><path style="opacity:0.254" fill="#636dcb" d="M 214.5,169.5 C 213.878,172.776 211.878,174.109 208.5,173.5C 210.463,172.18 212.463,170.846 214.5,169.5 Z"/></g>
<g><path style="opacity:0.12" fill="#636dcb" d="M 298.5,171.5 C 299.5,171.833 300.167,172.5 300.5,173.5C 299.167,173.5 298.5,172.833 298.5,171.5 Z"/></g>
<g><path style="opacity:0.179" fill="#636dcb" d="M 206.5,174.5 C 206.179,176.048 205.179,176.715 203.5,176.5C 204.29,175.599 205.29,174.932 206.5,174.5 Z"/></g>
<g><path style="opacity:0.127" fill="#636dcb" d="M 303.5,174.5 C 305.23,175.026 306.564,176.026 307.5,177.5C 305.368,177.446 304.035,176.446 303.5,174.5 Z"/></g>
<g><path style="opacity:0.284" fill="#636dcb" d="M 200.5,178.5 C 199.817,180.176 198.483,180.843 196.5,180.5C 197.514,179.326 198.847,178.66 200.5,178.5 Z"/></g>
<g><path style="opacity:0.127" fill="#636dcb" d="M 310.5,178.5 C 312.23,179.026 313.564,180.026 314.5,181.5C 312.368,181.446 311.035,180.446 310.5,178.5 Z"/></g>
<g><path style="opacity:0.175" fill="#636dcb" d="M 195.5,180.5 C 195.306,182.912 193.973,183.912 191.5,183.5C 192.795,182.512 194.128,181.512 195.5,180.5 Z"/></g>
<g><path style="opacity:0.119" fill="#636dcb" d="M 317.5,182.5 C 318.5,182.833 319.167,183.5 319.5,184.5C 318.167,184.5 317.5,183.833 317.5,182.5 Z"/></g>
<g><path style="opacity:0.178" fill="#636dcb" d="M 187.5,185.5 C 187.179,187.048 186.179,187.715 184.5,187.5C 185.29,186.599 186.29,185.932 187.5,185.5 Z"/></g>
<g><path style="opacity:0.129" fill="#636dcb" d="M 322.5,185.5 C 324.23,186.026 325.564,187.026 326.5,188.5C 324.368,188.446 323.035,187.446 322.5,185.5 Z"/></g>
<g><path style="opacity:0.256" fill="#636dcb" d="M 183.5,187.5 C 182.878,190.776 180.878,192.109 177.5,191.5C 179.463,190.18 181.463,188.846 183.5,187.5 Z"/></g>
<g><path style="opacity:0.129" fill="#636dcb" d="M 329.5,189.5 C 331.23,190.026 332.564,191.026 333.5,192.5C 331.368,192.446 330.035,191.446 329.5,189.5 Z"/></g>
<g><path style="opacity:0.256" fill="#636dcb" d="M 93.5,190.5 C 94.4916,190.328 95.1583,190.662 95.5,191.5C 94.0755,193.031 93.4088,192.698 93.5,190.5 Z"/></g>
<g><path style="opacity:0.179" fill="#636dcb" d="M 175.5,192.5 C 175.179,194.048 174.179,194.715 172.5,194.5C 173.29,193.599 174.29,192.932 175.5,192.5 Z"/></g>
<g><path style="opacity:0.129" fill="#636dcb" d="M 336.5,193.5 C 338.23,194.026 339.564,195.026 340.5,196.5C 338.368,196.446 337.035,195.446 336.5,193.5 Z"/></g>
<g><path style="opacity:0.403" fill="#636dcb" d="M 409.5,195.5 C 409.842,194.662 410.508,194.328 411.5,194.5C 411.591,196.698 410.925,197.031 409.5,195.5 Z"/></g>
<g><path style="opacity:0.189" fill="#636dcb" d="M 22.5,195.5 C 23.1657,199.486 23.499,203.653 23.5,208C 23.4915,212.557 22.8248,216.724 21.5,220.5C 21.1739,211.983 21.5073,203.65 22.5,195.5 Z"/></g>
<g><path style="opacity:0.179" fill="#636dcb" d="M 168.5,196.5 C 168.179,198.048 167.179,198.715 165.5,198.5C 166.29,197.599 167.29,196.932 168.5,196.5 Z"/></g>
<g><path style="opacity:0.118" fill="#636dcb" d="M 343.5,197.5 C 344.5,197.833 345.167,198.5 345.5,199.5C 344.167,199.5 343.5,198.833 343.5,197.5 Z"/></g>
<g><path style="opacity:0.443" fill="#636dcb" d="M 404.5,198.5 C 404.842,197.662 405.508,197.328 406.5,197.5C 406.591,199.698 405.925,200.031 404.5,198.5 Z"/></g>
<g><path style="opacity:0.403" fill="#636dcb" d="M 402.5,199.5 C 402.842,198.662 403.508,198.328 404.5,198.5C 404.591,200.698 403.925,201.031 402.5,199.5 Z"/></g>
<g><path style="opacity:0.458" fill="#636dcb" d="M 487.5,198.5 C 487.5,203.167 487.5,207.833 487.5,212.5C 486.195,210.603 485.529,208.269 485.5,205.5C 485.529,202.731 486.195,200.397 487.5,198.5 Z"/></g>
<g><path style="opacity:0.195" fill="#636dcb" d="M 162.5,200.5 C 161.713,202.104 160.38,202.771 158.5,202.5C 159.514,201.326 160.847,200.66 162.5,200.5 Z"/></g>
<g><path style="opacity:0.118" fill="#636dcb" d="M 350.5,201.5 C 351.5,201.833 352.167,202.5 352.5,203.5C 351.167,203.5 350.5,202.833 350.5,201.5 Z"/></g>
<g><path style="opacity:0.401" fill="#636dcb" d="M 397.5,202.5 C 397.842,201.662 398.508,201.328 399.5,201.5C 399.591,203.698 398.925,204.031 397.5,202.5 Z"/></g>
<g><path style="opacity:0.199" fill="#636dcb" d="M 157.5,202.5 C 156.608,205.292 154.608,206.625 151.5,206.5C 153.463,205.18 155.463,203.846 157.5,202.5 Z"/></g>
<g><path style="opacity:0.127" fill="#636dcb" d="M 355.5,204.5 C 357.23,205.026 358.564,206.026 359.5,207.5C 357.368,207.446 356.035,206.446 355.5,204.5 Z"/></g>
<g><path style="opacity:0.403" fill="#636dcb" d="M 390.5,206.5 C 390.842,205.662 391.508,205.328 392.5,205.5C 392.591,207.698 391.925,208.031 390.5,206.5 Z"/></g>
<g><path style="opacity:0.195" fill="#636dcb" d="M 150.5,207.5 C 149.713,209.104 148.38,209.771 146.5,209.5C 147.514,208.326 148.847,207.66 150.5,207.5 Z"/></g>
<g><path style="opacity:0.127" fill="#636dcb" d="M 362.5,208.5 C 364.23,209.026 365.564,210.026 366.5,211.5C 364.368,211.446 363.035,210.446 362.5,208.5 Z"/></g>
<g><path style="opacity:0.446" fill="#636dcb" d="M 385.5,209.5 C 385.842,208.662 386.508,208.328 387.5,208.5C 387.591,210.698 386.925,211.031 385.5,209.5 Z"/></g>
<g><path style="opacity:0.2" fill="#636dcb" d="M 145.5,209.5 C 144.608,212.292 142.608,213.625 139.5,213.5C 141.463,212.18 143.463,210.846 145.5,209.5 Z"/></g>
<g><path style="opacity:0.401" fill="#636dcb" d="M 383.5,210.5 C 383.842,209.662 384.508,209.328 385.5,209.5C 385.591,211.698 384.925,212.031 383.5,210.5 Z"/></g>
<g><path style="opacity:0.116" fill="#636dcb" d="M 369.5,212.5 C 370.5,212.833 371.167,213.5 371.5,214.5C 370.167,214.5 369.5,213.833 369.5,212.5 Z"/></g>
<g><path style="opacity:0.264" fill="#636dcb" d="M 135.5,214.5 C 136.5,214.5 137.5,214.5 138.5,214.5C 136.957,216.557 135.957,216.557 135.5,214.5 Z"/></g>
<g><path style="opacity:0.286" fill="#636dcb" d="M 252.5,226.5 C 251.71,227.401 250.71,228.068 249.5,228.5C 249.821,226.952 250.821,226.285 252.5,226.5 Z"/></g>
<g><path style="opacity:0.211" fill="#636dcb" d="M 25.5,230.5 C 23.847,230.34 22.5137,229.674 21.5,228.5C 23.7564,226.903 25.0897,227.569 25.5,230.5 Z"/></g>
<g><path style="opacity:0.176" fill="#636dcb" d="M 485.5,229.5 C 484.101,230.89 482.434,231.89 480.5,232.5C 481.401,230.273 483.067,229.273 485.5,229.5 Z"/></g>
<g><path style="opacity:0.286" fill="#636dcb" d="M 245.5,230.5 C 244.71,231.401 243.71,232.068 242.5,232.5C 242.821,230.952 243.821,230.285 245.5,230.5 Z"/></g>
<g><path style="opacity:0.111" fill="#636dcb" d="M 27.5,231.5 C 29.0269,231.427 30.0269,232.094 30.5,233.5C 28.9731,233.573 27.9731,232.906 27.5,231.5 Z"/></g>
<g><path style="opacity:0.19" fill="#636dcb" d="M 480.5,232.5 C 479.486,233.674 478.153,234.34 476.5,234.5C 477.287,232.896 478.62,232.229 480.5,232.5 Z"/></g>
<g><path style="opacity:0.327" fill="#636dcb" d="M 240.5,233.5 C 239.035,234.737 237.368,235.737 235.5,236.5C 236.3,234.259 237.966,233.259 240.5,233.5 Z"/></g>
<g><path style="opacity:0.123" fill="#636dcb" d="M 32.5,234.5 C 34.674,234.75 36.3406,235.75 37.5,237.5C 35.326,237.25 33.6594,236.25 32.5,234.5 Z"/></g>
<g><path style="opacity:0.178" fill="#636dcb" d="M 473.5,236.5 C 472.101,237.89 470.434,238.89 468.5,239.5C 469.401,237.273 471.067,236.273 473.5,236.5 Z"/></g>
<g><path style="opacity:0.304" fill="#636dcb" d="M 233.5,237.5 C 232.486,238.674 231.153,239.34 229.5,239.5C 230.287,237.896 231.62,237.229 233.5,237.5 Z"/></g>
<g><path style="opacity:0.125" fill="#636dcb" d="M 39.5,238.5 C 41.674,238.75 43.3406,239.75 44.5,241.5C 42.326,241.25 40.6594,240.25 39.5,238.5 Z"/></g>
<g><path style="opacity:0.192" fill="#636dcb" d="M 468.5,239.5 C 467.486,240.674 466.153,241.34 464.5,241.5C 465.287,239.896 466.62,239.229 468.5,239.5 Z"/></g>
<g><path style="opacity:0.287" fill="#636dcb" d="M 226.5,241.5 C 225.71,242.401 224.71,243.068 223.5,243.5C 223.821,241.952 224.821,241.285 226.5,241.5 Z"/></g>
<g><path style="opacity:0.115" fill="#636dcb" d="M 46.5,242.5 C 48.0269,242.427 49.0269,243.094 49.5,244.5C 47.9731,244.573 46.9731,243.906 46.5,242.5 Z"/></g>
<g><path style="opacity:0.179" fill="#636dcb" d="M 461.5,243.5 C 460.101,244.89 458.434,245.89 456.5,246.5C 457.401,244.273 459.067,243.273 461.5,243.5 Z"/></g>
<g><path style="opacity:0.325" fill="#636dcb" d="M 221.5,244.5 C 220.035,245.737 218.368,246.737 216.5,247.5C 217.3,245.259 218.966,244.259 221.5,244.5 Z"/></g>
<g><path style="opacity:0.125" fill="#636dcb" d="M 51.5,245.5 C 53.674,245.75 55.3406,246.75 56.5,248.5C 54.326,248.25 52.6594,247.25 51.5,245.5 Z"/></g>
<g><path style="opacity:0.192" fill="#636dcb" d="M 456.5,246.5 C 455.486,247.674 454.153,248.34 452.5,248.5C 453.287,246.896 454.62,246.229 456.5,246.5 Z"/></g>
<g><path style="opacity:0.302" fill="#636dcb" d="M 214.5,248.5 C 213.486,249.674 212.153,250.34 210.5,250.5C 211.287,248.896 212.62,248.229 214.5,248.5 Z"/></g>
<g><path style="opacity:0.127" fill="#636dcb" d="M 58.5,249.5 C 60.674,249.75 62.3406,250.75 63.5,252.5C 61.326,252.25 59.6594,251.25 58.5,249.5 Z"/></g>
<g><path style="opacity:0.181" fill="#636dcb" d="M 449.5,250.5 C 448.101,251.89 446.434,252.89 444.5,253.5C 445.401,251.273 447.067,250.273 449.5,250.5 Z"/></g>
<g><path style="opacity:0.257" fill="#636dcb" d="M 207.5,252.5 C 206.449,253.222 205.782,254.222 205.5,255.5C 204.596,254.791 204.263,253.791 204.5,252.5C 205.5,252.5 206.5,252.5 207.5,252.5 Z"/></g>
<g><path style="opacity:0.108" fill="#636dcb" d="M 65.5,253.5 C 69.5,254.5 69.5,255.5 65.5,256.5C 66.8333,255.5 66.8333,254.5 65.5,253.5 Z"/></g>
<g><path style="opacity:0.209" fill="#636dcb" d="M 444.5,253.5 C 443.167,254.5 443.167,255.5 444.5,256.5C 439.233,255.438 439.233,254.438 444.5,253.5 Z"/></g>
<g><path style="opacity:0.328" fill="#636dcb" d="M 303.5,254.5 C 308.573,255.878 308.24,256.878 302.5,257.5C 302.918,256.778 303.584,256.278 304.5,256C 303.944,255.617 303.611,255.117 303.5,254.5 Z"/></g>
<g><path style="opacity:0.193" fill="#636dcb" d="M 64.5,257.5 C 63.713,259.104 62.3797,259.771 60.5,259.5C 61.5137,258.326 62.847,257.66 64.5,257.5 Z"/></g>
<g><path style="opacity:0.127" fill="#636dcb" d="M 446.5,257.5 C 448.674,257.75 450.341,258.75 451.5,260.5C 449.326,260.25 447.659,259.25 446.5,257.5 Z"/></g>
<g><path style="opacity:0.285" fill="#636dcb" d="M 300.5,258.5 C 300.179,260.048 299.179,260.715 297.5,260.5C 298.29,259.599 299.29,258.932 300.5,258.5 Z"/></g>
<g><path style="opacity:0.18" fill="#636dcb" d="M 60.5,259.5 C 59.5994,261.727 57.9328,262.727 55.5,262.5C 56.8993,261.11 58.5659,260.11 60.5,259.5 Z"/></g>
<g><path style="opacity:0.115" fill="#636dcb" d="M 453.5,261.5 C 455.027,261.427 456.027,262.094 456.5,263.5C 454.973,263.573 453.973,262.906 453.5,261.5 Z"/></g>
<g><path style="opacity:0.302" fill="#636dcb" d="M 294.5,262.5 C 293.713,264.104 292.38,264.771 290.5,264.5C 291.514,263.326 292.847,262.66 294.5,262.5 Z"/></g>
<g><path style="opacity:0.191" fill="#636dcb" d="M 52.5,264.5 C 51.713,266.104 50.3797,266.771 48.5,266.5C 49.5137,265.326 50.847,264.66 52.5,264.5 Z"/></g>
<g><path style="opacity:0.125" fill="#636dcb" d="M 458.5,264.5 C 460.674,264.75 462.341,265.75 463.5,267.5C 461.326,267.25 459.659,266.25 458.5,264.5 Z"/></g>
<g><path style="opacity:0.318" fill="#636dcb" d="M 288.5,265.5 C 288.179,267.048 287.179,267.715 285.5,267.5C 286.29,266.599 287.29,265.932 288.5,265.5 Z"/></g>
<g><path style="opacity:0.191" fill="#636dcb" d="M 48.5,266.5 C 46.9478,269.112 44.6145,270.445 41.5,270.5C 43.6626,268.917 45.9959,267.584 48.5,266.5 Z"/></g>
<g><path style="opacity:0.125" fill="#636dcb" d="M 465.5,268.5 C 467.674,268.75 469.341,269.75 470.5,271.5C 468.326,271.25 466.659,270.25 465.5,268.5 Z"/></g>
<g><path style="opacity:0.304" fill="#636dcb" d="M 282.5,269.5 C 281.713,271.104 280.38,271.771 278.5,271.5C 279.514,270.326 280.847,269.66 282.5,269.5 Z"/></g>
<g><path style="opacity:0.19" fill="#636dcb" d="M 40.5,271.5 C 39.713,273.104 38.3797,273.771 36.5,273.5C 37.5137,272.326 38.847,271.66 40.5,271.5 Z"/></g>
<g><path style="opacity:0.287" fill="#636dcb" d="M 276.5,272.5 C 276.179,274.048 275.179,274.715 273.5,274.5C 274.29,273.599 275.29,272.932 276.5,272.5 Z"/></g>
<g><path style="opacity:0.123" fill="#636dcb" d="M 472.5,272.5 C 474.674,272.75 476.341,273.75 477.5,275.5C 475.326,275.25 473.659,274.25 472.5,272.5 Z"/></g>
<g><path style="opacity:0.834" fill="#636dcb" d="M 404.5,274.5 C 406.975,274.747 406.975,275.413 404.5,276.5C 403.537,276.03 403.537,275.363 404.5,274.5 Z"/></g>
<g><path style="opacity:0.241" fill="#636dcb" d="M 33.5,275.5 C 33.3057,276.968 31.9724,277.635 29.5,277.5C 30.5137,276.326 31.847,275.66 33.5,275.5 Z"/></g>
<g><path style="opacity:0.123" fill="#636dcb" d="M 477.5,275.5 C 479.674,275.75 481.341,276.75 482.5,278.5C 480.326,278.25 478.659,277.25 477.5,275.5 Z"/></g>
<g><path style="opacity:0.286" fill="#636dcb" d="M 269.5,276.5 C 269.179,278.048 268.179,278.715 266.5,278.5C 267.29,277.599 268.29,276.932 269.5,276.5 Z"/></g>
<g><path style="opacity:0.176" fill="#636dcb" d="M 29.5,277.5 C 28.5994,279.727 26.9328,280.727 24.5,280.5C 25.8993,279.11 27.5659,278.11 29.5,277.5 Z"/></g>
<g><path style="opacity:0.319" fill="#636dcb" d="M 264.5,279.5 C 264.179,281.048 263.179,281.715 261.5,281.5C 262.29,280.599 263.29,279.932 264.5,279.5 Z"/></g>
<g><path style="opacity:0.212" fill="#636dcb" d="M 484.5,279.5 C 486.153,279.66 487.486,280.326 488.5,281.5C 486.244,283.097 484.91,282.431 484.5,279.5 Z"/></g>
<g><path style="opacity:0.203" fill="#636dcb" d="M 488.5,288.5 C 488.825,296.352 488.492,304.018 487.5,311.5C 486.835,307.849 486.501,304.015 486.5,300C 486.51,295.771 487.177,291.938 488.5,288.5 Z"/></g>
<g><path style="opacity:0.224" fill="#636dcb" d="M 374.5,295.5 C 373.391,295.557 372.391,295.89 371.5,296.5C 371.75,295.078 372.583,294.078 374,293.5C 374.464,294.094 374.631,294.761 374.5,295.5 Z"/></g>
<g><path style="opacity:0.447" fill="#636dcb" d="M 133.5,295.5 C 133.158,296.338 132.492,296.672 131.5,296.5C 131.409,294.302 132.075,293.969 133.5,295.5 Z"/></g>
<g><path style="opacity:0.129" fill="#636dcb" d="M 136.5,294.5 C 138.632,294.554 139.965,295.554 140.5,297.5C 138.77,296.974 137.436,295.974 136.5,294.5 Z"/></g>
<g><path style="opacity:0.195" fill="#636dcb" d="M 370.5,296.5 C 369.486,297.674 368.153,298.34 366.5,298.5C 367.287,296.896 368.62,296.229 370.5,296.5 Z"/></g>
<g><path style="opacity:0.458" fill="#636dcb" d="M 22.5,297.5 C 23.8001,299.223 24.4668,301.39 24.5,304C 24.4668,306.61 23.8001,308.777 22.5,310.5C 22.5,306.167 22.5,301.833 22.5,297.5 Z"/></g>
<g><path style="opacity:0.403" fill="#636dcb" d="M 128.5,298.5 C 128.158,299.338 127.492,299.672 126.5,299.5C 126.409,297.302 127.075,296.969 128.5,298.5 Z"/></g>
<g><path style="opacity:0.115" fill="#636dcb" d="M 143.5,298.5 C 144.833,298.5 145.5,299.167 145.5,300.5C 144.5,300.167 143.833,299.5 143.5,298.5 Z"/></g>
<g><path style="opacity:0.127" fill="#636dcb" d="M 366.5,298.5 C 366.167,299.5 365.5,300.167 364.5,300.5C 364.5,299.167 365.167,298.5 366.5,298.5 Z"/></g>
<g><path style="opacity:0.174" fill="#636dcb" d="M 363.5,300.5 C 362.205,301.488 360.872,302.488 359.5,303.5C 359.694,301.088 361.027,300.088 363.5,300.5 Z"/></g>
<g><path style="opacity:0.403" fill="#636dcb" d="M 121.5,302.5 C 121.158,303.338 120.492,303.672 119.5,303.5C 119.409,301.302 120.075,300.969 121.5,302.5 Z"/></g>
<g><path style="opacity:0.116" fill="#636dcb" d="M 150.5,302.5 C 151.833,302.5 152.5,303.167 152.5,304.5C 151.5,304.167 150.833,303.5 150.5,302.5 Z"/></g>
<g><path style="opacity:0.191" fill="#636dcb" d="M 358.5,303.5 C 357.486,304.674 356.153,305.34 354.5,305.5C 355.287,303.896 356.62,303.229 358.5,303.5 Z"/></g>
<g><path style="opacity:0.403" fill="#636dcb" d="M 116.5,305.5 C 116.158,306.338 115.492,306.672 114.5,306.5C 114.409,304.302 115.075,303.969 116.5,305.5 Z"/></g>
<g><path style="opacity:0.444" fill="#636dcb" d="M 114.5,306.5 C 114.158,307.338 113.492,307.672 112.5,307.5C 112.409,305.302 113.075,304.969 114.5,306.5 Z"/></g>
<g><path style="opacity:0.128" fill="#636dcb" d="M 155.5,305.5 C 157.632,305.554 158.965,306.554 159.5,308.5C 157.77,307.974 156.436,306.974 155.5,305.5 Z"/></g>
<g><path style="opacity:0.195" fill="#636dcb" d="M 351.5,307.5 C 350.486,308.674 349.153,309.34 347.5,309.5C 348.287,307.896 349.62,307.229 351.5,307.5 Z"/></g>
<g><path style="opacity:0.403" fill="#636dcb" d="M 109.5,309.5 C 109.158,310.338 108.492,310.672 107.5,310.5C 107.409,308.302 108.075,307.969 109.5,309.5 Z"/></g>
<g><path style="opacity:0.118" fill="#636dcb" d="M 162.5,309.5 C 163.833,309.5 164.5,310.167 164.5,311.5C 163.5,311.167 162.833,310.5 162.5,309.5 Z"/></g>
<g><path style="opacity:0.2" fill="#636dcb" d="M 346.5,310.5 C 344.537,311.82 342.537,313.154 340.5,314.5C 341.392,311.708 343.392,310.375 346.5,310.5 Z"/></g>
<g><path style="opacity:0.443" fill="#636dcb" d="M 102.5,313.5 C 102.158,314.338 101.492,314.672 100.5,314.5C 100.409,312.302 101.075,311.969 102.5,313.5 Z"/></g>
<g><path style="opacity:0.129" fill="#636dcb" d="M 167.5,312.5 C 169.632,312.554 170.965,313.554 171.5,315.5C 169.77,314.974 168.436,313.974 167.5,312.5 Z"/></g>
<g><path style="opacity:0.083" fill="#636dcb" d="M 487.5,312.5 C 488.833,313.167 488.833,313.833 487.5,314.5C 486.167,313.833 486.167,313.167 487.5,312.5 Z"/></g>
<g><path style="opacity:0.179" fill="#636dcb" d="M 339.5,314.5 C 338.71,315.401 337.71,316.068 336.5,316.5C 336.821,314.952 337.821,314.285 339.5,314.5 Z"/></g>
<g><path style="opacity:0.403" fill="#636dcb" d="M 97.5,316.5 C 97.1583,317.338 96.4916,317.672 95.5,317.5C 95.4088,315.302 96.0755,314.969 97.5,316.5 Z"/></g>
<g><path style="opacity:0.119" fill="#636dcb" d="M 174.5,316.5 C 175.833,316.5 176.5,317.167 176.5,318.5C 175.5,318.167 174.833,317.5 174.5,316.5 Z"/></g>
<g><path style="opacity:0.256" fill="#636dcb" d="M 334.5,317.5 C 332.537,318.82 330.537,320.154 328.5,321.5C 329.122,318.224 331.122,316.891 334.5,317.5 Z"/></g>
<g><path style="opacity:0.258" fill="#636dcb" d="M 416.5,319.5 C 415.508,319.672 414.842,319.338 414.5,318.5C 415.925,316.969 416.591,317.302 416.5,319.5 Z"/></g>
<g><path style="opacity:0.129" fill="#636dcb" d="M 179.5,319.5 C 181.632,319.554 182.965,320.554 183.5,322.5C 181.77,321.974 180.436,320.974 179.5,319.5 Z"/></g>
<g><path style="opacity:0.179" fill="#636dcb" d="M 327.5,321.5 C 326.71,322.401 325.71,323.068 324.5,323.5C 324.821,321.952 325.821,321.285 327.5,321.5 Z"/></g>
<g><path style="opacity:0.128" fill="#636dcb" d="M 186.5,323.5 C 188.632,323.554 189.965,324.554 190.5,326.5C 188.77,325.974 187.436,324.974 186.5,323.5 Z"/></g>
<g><path style="opacity:0.271" fill="#636dcb" d="M 320.5,325.5 C 319.205,326.488 317.872,327.488 316.5,328.5C 316.91,325.708 318.244,324.708 320.5,325.5 Z"/></g>
<g><path style="opacity:0.196" fill="#636dcb" d="M 22.5,326.5 C 23.1657,330.486 23.499,334.653 23.5,339C 23.4915,343.557 22.8248,347.724 21.5,351.5C 21.1739,342.983 21.5073,334.65 22.5,326.5 Z"/></g>
<g><path style="opacity:0.119" fill="#636dcb" d="M 193.5,327.5 C 194.833,327.5 195.5,328.167 195.5,329.5C 194.5,329.167 193.833,328.5 193.5,327.5 Z"/></g>
<g><path style="opacity:0.179" fill="#636dcb" d="M 315.5,328.5 C 314.71,329.401 313.71,330.068 312.5,330.5C 312.821,328.952 313.821,328.285 315.5,328.5 Z"/></g>
<g><path style="opacity:0.462" fill="#636dcb" d="M 487.5,328.5 C 487.5,333.167 487.5,337.833 487.5,342.5C 486.195,340.603 485.529,338.269 485.5,335.5C 485.529,332.731 486.195,330.397 487.5,328.5 Z"/></g>
<g><path style="opacity:0.119" fill="#636dcb" d="M 200.5,331.5 C 201.833,331.5 202.5,332.167 202.5,333.5C 201.5,333.167 200.833,332.5 200.5,331.5 Z"/></g>
<g><path style="opacity:0.175" fill="#636dcb" d="M 308.5,332.5 C 307.205,333.488 305.872,334.488 304.5,335.5C 304.694,333.088 306.027,332.088 308.5,332.5 Z"/></g>
<g><path style="opacity:0.127" fill="#636dcb" d="M 205.5,334.5 C 207.632,334.554 208.965,335.554 209.5,337.5C 207.77,336.974 206.436,335.974 205.5,334.5 Z"/></g>
<g><path style="opacity:0.284" fill="#636dcb" d="M 303.5,335.5 C 302.486,336.674 301.153,337.34 299.5,337.5C 300.183,335.824 301.517,335.157 303.5,335.5 Z"/></g>
<g><path style="opacity:0.128" fill="#636dcb" d="M 212.5,338.5 C 214.632,338.554 215.965,339.554 216.5,341.5C 214.77,340.974 213.436,339.974 212.5,338.5 Z"/></g>
<g><path style="opacity:0.278" fill="#636dcb" d="M 296.5,339.5 C 295.71,340.401 294.71,341.068 293.5,341.5C 293.632,338.993 294.632,338.326 296.5,339.5 Z"/></g>
<g><path style="opacity:0.292" fill="#636dcb" d="M 291.5,342.5 C 289.537,343.82 287.537,345.154 285.5,346.5C 286.397,343.071 288.397,341.738 291.5,342.5 Z"/></g>
<g><path style="opacity:0.12" fill="#636dcb" d="M 219.5,342.5 C 220.833,342.5 221.5,343.167 221.5,344.5C 220.5,344.167 219.833,343.5 219.5,342.5 Z"/></g>
<g><path style="opacity:0.278" fill="#636dcb" d="M 284.5,346.5 C 283.71,347.401 282.71,348.068 281.5,348.5C 281.632,345.993 282.632,345.326 284.5,346.5 Z"/></g>
<g><path style="opacity:0.12" fill="#636dcb" d="M 226.5,346.5 C 227.833,346.5 228.5,347.167 228.5,348.5C 227.5,348.167 226.833,347.5 226.5,346.5 Z"/></g>
<g><path style="opacity:0.292" fill="#636dcb" d="M 279.5,349.5 C 277.537,350.82 275.537,352.154 273.5,353.5C 274.397,350.071 276.397,348.738 279.5,349.5 Z"/></g>
<g><path style="opacity:0.175" fill="#636dcb" d="M 231.5,349.5 C 233.973,349.088 235.306,350.088 235.5,352.5C 233.77,351.974 232.436,350.974 231.5,349.5 Z"/></g>
<g><path style="opacity:0.278" fill="#636dcb" d="M 272.5,353.5 C 271.71,354.401 270.71,355.068 269.5,355.5C 269.632,352.993 270.632,352.326 272.5,353.5 Z"/></g>
<g><path style="opacity:0.175" fill="#636dcb" d="M 238.5,353.5 C 240.973,353.088 242.306,354.088 242.5,356.5C 240.77,355.974 239.436,354.974 238.5,353.5 Z"/></g>
<g><path style="opacity:0.247" fill="#636dcb" d="M 265.5,357.5 C 264.205,358.488 262.872,359.488 261.5,360.5C 261.91,357.708 263.244,356.708 265.5,357.5 Z"/></g>
<g><path style="opacity:0.26" fill="#636dcb" d="M 25.5,361.5 C 23.847,361.34 22.5137,360.674 21.5,359.5C 22.7498,359.423 23.5831,358.756 24,357.5C 24.4101,358.901 24.9101,360.234 25.5,361.5 Z"/></g>
<g><path style="opacity:0.12" fill="#636dcb" d="M 245.5,357.5 C 246.833,357.5 247.5,358.167 247.5,359.5C 246.5,359.167 245.833,358.5 245.5,357.5 Z"/></g>
<g><path style="opacity:0.171" fill="#636dcb" d="M 487.5,357.5 C 487.715,359.179 487.048,360.179 485.5,360.5C 485.285,358.821 485.952,357.821 487.5,357.5 Z"/></g>
<g><path style="opacity:0.317" fill="#636dcb" d="M 260.5,360.5 C 257.075,364.327 253.742,364.327 250.5,360.5C 253.894,360.803 257.227,360.803 260.5,360.5 Z"/></g>
<g><path style="opacity:0.249" fill="#636dcb" d="M 485.5,360.5 C 484.101,361.89 482.434,362.89 480.5,363.5C 481.345,360.588 483.012,359.588 485.5,360.5 Z"/></g>
<g><path style="opacity:0.234" fill="#636dcb" d="M 27.5,362.5 C 26.5084,362.672 25.8417,362.338 25.5,361.5C 26.9245,359.969 27.5912,360.302 27.5,362.5 Z"/></g>
<g><path style="opacity:0.159" fill="#636dcb" d="M 30.5,364.5 C 28.9731,364.573 27.9731,363.906 27.5,362.5C 29.1227,361.509 30.1227,362.176 30.5,364.5 Z"/></g>
<g><path style="opacity:0.364" fill="#636dcb" d="M 480.5,363.5 C 479.486,364.674 478.153,365.34 476.5,365.5C 475.957,365.44 475.624,365.107 475.5,364.5C 476.909,362.374 478.576,362.04 480.5,363.5 Z"/></g>
<g><path style="opacity:0.175" fill="#636dcb" d="M 37.5,368.5 C 35.326,368.25 33.6594,367.25 32.5,365.5C 33.7603,365.201 34.927,365.201 36,365.5C 36.5133,366.527 37.0133,367.527 37.5,368.5 Z"/></g>
<g><path style="opacity:0.239" fill="#636dcb" d="M 473.5,367.5 C 472.486,368.674 471.153,369.34 469.5,369.5C 469.91,366.569 471.244,365.903 473.5,367.5 Z"/></g>
<g><path style="opacity:0.174" fill="#636dcb" d="M 44.5,372.5 C 42.326,372.25 40.6594,371.25 39.5,369.5C 40.7603,369.201 41.927,369.201 43,369.5C 43.5133,370.527 44.0133,371.527 44.5,372.5 Z"/></g>
<g><path style="opacity:0.271" fill="#636dcb" d="M 468.5,370.5 C 466.337,372.083 464.004,373.416 461.5,374.5C 462.779,370.82 465.113,369.487 468.5,370.5 Z"/></g>
<g><path style="opacity:0.233" fill="#636dcb" d="M 46.5,373.5 C 45.5084,373.672 44.8417,373.338 44.5,372.5C 45.9245,370.969 46.5912,371.302 46.5,373.5 Z"/></g>
<g><path style="opacity:0.196" fill="#636dcb" d="M 51.5,376.5 C 49.326,376.25 47.6594,375.25 46.5,373.5C 48.9882,372.588 50.6548,373.588 51.5,376.5 Z"/></g>
<g><path style="opacity:0.239" fill="#636dcb" d="M 461.5,374.5 C 460.486,375.674 459.153,376.34 457.5,376.5C 457.91,373.569 459.244,372.903 461.5,374.5 Z"/></g>
<g><path style="opacity:0.233" fill="#636dcb" d="M 53.5,377.5 C 52.5084,377.672 51.8417,377.338 51.5,376.5C 52.9245,374.969 53.5912,375.302 53.5,377.5 Z"/></g>
<g><path style="opacity:0.159" fill="#636dcb" d="M 56.5,379.5 C 54.9731,379.573 53.9731,378.906 53.5,377.5C 55.1227,376.509 56.1227,377.176 56.5,379.5 Z"/></g>
<g><path style="opacity:0.238" fill="#636dcb" d="M 454.5,378.5 C 453.486,379.674 452.153,380.34 450.5,380.5C 450.91,377.569 452.244,376.903 454.5,378.5 Z"/></g>
<g><path style="opacity:0.196" fill="#636dcb" d="M 63.5,383.5 C 61.326,383.25 59.6594,382.25 58.5,380.5C 60.9882,379.588 62.6548,380.588 63.5,383.5 Z"/></g>
<g><path style="opacity:0.271" fill="#636dcb" d="M 449.5,381.5 C 447.337,383.083 445.004,384.416 442.5,385.5C 443.779,381.82 446.113,380.487 449.5,381.5 Z"/></g>
<g><path style="opacity:0.196" fill="#636dcb" d="M 70.5,387.5 C 68.326,387.25 66.6594,386.25 65.5,384.5C 67.9882,383.588 69.6548,384.588 70.5,387.5 Z"/></g>
<g><path style="opacity:0.237" fill="#636dcb" d="M 442.5,385.5 C 441.486,386.674 440.153,387.34 438.5,387.5C 438.91,384.569 440.244,383.903 442.5,385.5 Z"/></g>
<g><path style="opacity:0.231" fill="#636dcb" d="M 72.5,388.5 C 71.5084,388.672 70.8417,388.338 70.5,387.5C 71.9245,385.969 72.5912,386.302 72.5,388.5 Z"/></g>
<g><path style="opacity:0.161" fill="#636dcb" d="M 75.5,390.5 C 73.9731,390.573 72.9731,389.906 72.5,388.5C 74.1227,387.509 75.1227,388.176 75.5,390.5 Z"/></g>
<g><path style="opacity:0.224" fill="#636dcb" d="M 435.5,389.5 C 434.101,390.89 432.434,391.89 430.5,392.5C 431.345,389.588 433.012,388.588 435.5,389.5 Z"/></g>
<g><path style="opacity:0.23" fill="#636dcb" d="M 79.5,392.5 C 78.5084,392.672 77.8417,392.338 77.5,391.5C 78.9245,389.969 79.5912,390.302 79.5,392.5 Z"/></g>
<g><path style="opacity:0.16" fill="#636dcb" d="M 82.5,394.5 C 80.9731,394.573 79.9731,393.906 79.5,392.5C 81.1227,391.509 82.1227,392.176 82.5,394.5 Z"/></g>
<g><path style="opacity:0.286" fill="#636dcb" d="M 430.5,392.5 C 428.337,394.083 426.004,395.416 423.5,396.5C 424.758,392.851 427.091,391.518 430.5,392.5 Z"/></g>
<g><path style="opacity:0.196" fill="#636dcb" d="M 89.5,398.5 C 87.326,398.25 85.6594,397.25 84.5,395.5C 86.9882,394.588 88.6548,395.588 89.5,398.5 Z"/></g>
<g><path style="opacity:0.273" fill="#636dcb" d="M 423.5,396.5 C 422.486,397.674 421.153,398.34 419.5,398.5C 420.076,395.876 421.41,395.209 423.5,396.5 Z"/></g>
<g><path style="opacity:0.195" fill="#636dcb" d="M 96.5,402.5 C 94.326,402.25 92.6594,401.25 91.5,399.5C 93.9882,398.588 95.6548,399.588 96.5,402.5 Z"/></g>
<g><path style="opacity:0.248" fill="#636dcb" d="M 418.5,399.5 C 417.101,400.89 415.434,401.89 413.5,402.5C 414.345,399.588 416.012,398.588 418.5,399.5 Z"/></g>
<g><path style="opacity:0.23" fill="#636dcb" d="M 98.5,403.5 C 97.5084,403.672 96.8417,403.338 96.5,402.5C 97.9245,400.969 98.5912,401.302 98.5,403.5 Z"/></g>
<g><path style="opacity:0.386" fill="#636dcb" d="M 413.5,402.5 C 412.486,403.674 411.153,404.34 409.5,404.5C 409.389,403.883 409.056,403.383 408.5,403C 410.139,401.481 411.806,401.314 413.5,402.5 Z"/></g>
<g><path style="opacity:0.16" fill="#636dcb" d="M 101.5,405.5 C 99.9731,405.573 98.9731,404.906 98.5,403.5C 100.123,402.509 101.123,403.176 101.5,405.5 Z"/></g>
<g><path style="opacity:0.229" fill="#636dcb" d="M 105.5,407.5 C 104.508,407.672 103.842,407.338 103.5,406.5C 104.925,404.969 105.591,405.302 105.5,407.5 Z"/></g>
<g><path style="opacity:0.272" fill="#636dcb" d="M 406.5,406.5 C 405.486,407.674 404.153,408.34 402.5,408.5C 403.076,405.876 404.41,405.209 406.5,406.5 Z"/></g>
<g><path style="opacity:0.161" fill="#636dcb" d="M 108.5,409.5 C 106.973,409.573 105.973,408.906 105.5,407.5C 107.123,406.509 108.123,407.176 108.5,409.5 Z"/></g>
<g><path style="opacity:0.285" fill="#636dcb" d="M 401.5,409.5 C 399.337,411.083 397.004,412.416 394.5,413.5C 395.758,409.851 398.091,408.518 401.5,409.5 Z"/></g>
<g><path style="opacity:0.195" fill="#636dcb" d="M 115.5,413.5 C 113.326,413.25 111.659,412.25 110.5,410.5C 112.988,409.588 114.655,410.588 115.5,413.5 Z"/></g>
<g><path style="opacity:0.272" fill="#636dcb" d="M 394.5,413.5 C 393.486,414.674 392.153,415.34 390.5,415.5C 391.076,412.876 392.41,412.209 394.5,413.5 Z"/></g>
<g><path style="opacity:0.195" fill="#636dcb" d="M 122.5,417.5 C 120.326,417.25 118.659,416.25 117.5,414.5C 119.988,413.588 121.655,414.588 122.5,417.5 Z"/></g>
<g><path style="opacity:0.227" fill="#636dcb" d="M 124.5,418.5 C 123.508,418.672 122.842,418.338 122.5,417.5C 123.925,415.969 124.591,416.302 124.5,418.5 Z"/></g>
<g><path style="opacity:0.225" fill="#636dcb" d="M 387.5,417.5 C 386.101,418.89 384.434,419.89 382.5,420.5C 383.345,417.588 385.012,416.588 387.5,417.5 Z"/></g>
<g><path style="opacity:0.161" fill="#636dcb" d="M 127.5,420.5 C 125.973,420.573 124.973,419.906 124.5,418.5C 126.123,417.509 127.123,418.176 127.5,420.5 Z"/></g>
<g><path style="opacity:0.301" fill="#636dcb" d="M 382.5,420.5 C 380.537,421.82 378.537,423.154 376.5,424.5C 377.03,420.603 379.03,419.27 382.5,420.5 Z"/></g>
<g><path style="opacity:0.226" fill="#636dcb" d="M 131.5,422.5 C 130.508,422.672 129.842,422.338 129.5,421.5C 130.925,419.969 131.591,420.302 131.5,422.5 Z"/></g>
<g><path style="opacity:0.185" fill="#636dcb" d="M 133.5,424.5 C 132.5,424.167 131.833,423.5 131.5,422.5C 133.203,421.34 133.869,422.007 133.5,424.5 Z"/></g>
<g><path style="opacity:0.271" fill="#636dcb" d="M 375.5,424.5 C 374.486,425.674 373.153,426.34 371.5,426.5C 372.076,423.876 373.41,423.209 375.5,424.5 Z"/></g>
<g><path style="opacity:0.21" fill="#636dcb" d="M 140.5,428.5 C 138.77,427.974 137.436,426.974 136.5,425.5C 139.02,424.45 140.354,425.45 140.5,428.5 Z"/></g>
<g><path style="opacity:0.214" fill="#636dcb" d="M 147.5,432.5 C 145.205,431.525 143.205,430.192 141.5,428.5C 142.117,428.389 142.617,428.056 143,427.5C 145.67,428.224 147.17,429.891 147.5,432.5 Z"/></g>
<g><path style="opacity:0.268" fill="#636dcb" d="M 368.5,428.5 C 367.205,429.488 365.872,430.488 364.5,431.5C 364.614,428.349 365.947,427.349 368.5,428.5 Z"/></g>
<g><path style="opacity:0.386" fill="#636dcb" d="M 363.5,431.5 C 362.486,432.674 361.153,433.34 359.5,433.5C 359.389,432.883 359.056,432.383 358.5,432C 360.139,430.481 361.806,430.314 363.5,431.5 Z"/></g>
<g><path style="opacity:0.207" fill="#636dcb" d="M 152.5,435.5 C 151.128,434.488 149.795,433.488 148.5,432.5C 150.973,431.43 152.307,432.43 152.5,435.5 Z"/></g>
<g><path style="opacity:0.27" fill="#636dcb" d="M 356.5,435.5 C 355.486,436.674 354.153,437.34 352.5,437.5C 353.076,434.876 354.41,434.209 356.5,435.5 Z"/></g>
<g><path style="opacity:0.121" fill="#636dcb" d="M 159.5,439.5 C 157.77,438.974 156.436,437.974 155.5,436.5C 155.435,436.062 155.601,435.728 156,435.5C 158.071,436.103 159.238,437.436 159.5,439.5 Z"/></g>
<g><path style="opacity:0.301" fill="#636dcb" d="M 351.5,438.5 C 349.537,439.82 347.537,441.154 345.5,442.5C 346.03,438.603 348.03,437.27 351.5,438.5 Z"/></g>
<g><path style="opacity:0.104" fill="#636dcb" d="M 166.5,443.5 C 165.128,442.488 163.795,441.488 162.5,440.5C 162.435,440.062 162.601,439.728 163,439.5C 165.071,440.103 166.238,441.436 166.5,443.5 Z"/></g>
<g><path style="opacity:0.299" fill="#636dcb" d="M 344.5,442.5 C 343.71,443.401 342.71,444.068 341.5,444.5C 341.402,441.752 342.402,441.086 344.5,442.5 Z"/></g>
<g><path style="opacity:0.104" fill="#636dcb" d="M 173.5,447.5 C 172.128,446.488 170.795,445.488 169.5,444.5C 169.435,444.062 169.601,443.728 170,443.5C 172.071,444.103 173.238,445.436 173.5,447.5 Z"/></g>
<g><path style="opacity:0.246" fill="#636dcb" d="M 337.5,446.5 C 336.205,447.488 334.872,448.488 333.5,449.5C 333.614,446.349 334.947,445.349 337.5,446.5 Z"/></g>
<g><path style="opacity:0.121" fill="#636dcb" d="M 180.5,451.5 C 178.77,450.974 177.436,449.974 176.5,448.5C 176.435,448.062 176.601,447.728 177,447.5C 179.071,448.103 180.238,449.436 180.5,451.5 Z"/></g>
<g><path style="opacity:0.301" fill="#636dcb" d="M 332.5,449.5 C 330.537,450.82 328.537,452.154 326.5,453.5C 327.03,449.603 329.03,448.27 332.5,449.5 Z"/></g>
<g><path style="opacity:0.12" fill="#636dcb" d="M 187.5,455.5 C 185.77,454.974 184.436,453.974 183.5,452.5C 183.435,452.062 183.601,451.728 184,451.5C 186.071,452.103 187.238,453.436 187.5,455.5 Z"/></g>
<g><path style="opacity:0.3" fill="#636dcb" d="M 325.5,453.5 C 324.71,454.401 323.71,455.068 322.5,455.5C 322.402,452.752 323.402,452.086 325.5,453.5 Z"/></g>
<g><path style="opacity:0.103" fill="#636dcb" d="M 192.5,458.5 C 191.128,457.488 189.795,456.488 188.5,455.5C 188.435,455.062 188.601,454.728 189,454.5C 191.071,455.103 192.238,456.436 192.5,458.5 Z"/></g>
<g><path style="opacity:0.263" fill="#636dcb" d="M 318.5,457.5 C 317.205,458.488 315.872,459.488 314.5,460.5C 314.707,457.366 316.04,456.366 318.5,457.5 Z"/></g>
<g><path style="opacity:0.102" fill="#636dcb" d="M 199.5,462.5 C 198.128,461.488 196.795,460.488 195.5,459.5C 195.435,459.062 195.601,458.728 196,458.5C 198.071,459.103 199.238,460.436 199.5,462.5 Z"/></g>
<g><path style="opacity:0.281" fill="#636dcb" d="M 313.5,460.5 C 312.71,461.401 311.71,462.068 310.5,462.5C 310.5,461.5 310.5,460.5 310.5,459.5C 311.791,459.263 312.791,459.596 313.5,460.5 Z"/></g>
<g><path style="opacity:0.118" fill="#636dcb" d="M 206.5,466.5 C 204.77,465.974 203.436,464.974 202.5,463.5C 202.435,463.062 202.601,462.728 203,462.5C 205.071,463.103 206.238,464.436 206.5,466.5 Z"/></g>
<g><path style="opacity:0.28" fill="#636dcb" d="M 306.5,464.5 C 305.71,465.401 304.71,466.068 303.5,466.5C 303.5,465.5 303.5,464.5 303.5,463.5C 304.791,463.263 305.791,463.596 306.5,464.5 Z"/></g>
<g><path style="opacity:0.118" fill="#636dcb" d="M 213.5,470.5 C 211.77,469.974 210.436,468.974 209.5,467.5C 209.435,467.062 209.601,466.728 210,466.5C 212.071,467.103 213.238,468.436 213.5,470.5 Z"/></g>
<g><path style="opacity:0.24" fill="#636dcb" d="M 301.5,467.5 C 299.537,468.82 297.537,470.154 295.5,471.5C 296.38,467.887 298.38,466.553 301.5,467.5 Z"/></g>
<g><path style="opacity:0.101" fill="#636dcb" d="M 218.5,473.5 C 217.5,473.167 216.833,472.5 216.5,471.5C 216.81,470.262 217.31,470.262 218,471.5C 218.464,472.094 218.631,472.761 218.5,473.5 Z"/></g>
<g><path style="opacity:0.171" fill="#636dcb" d="M 294.5,471.5 C 293.71,472.401 292.71,473.068 291.5,473.5C 291.668,470.949 292.668,470.282 294.5,471.5 Z"/></g>
<g><path style="opacity:0.118" fill="#636dcb" d="M 225.5,477.5 C 223.77,476.974 222.436,475.974 221.5,474.5C 221.435,474.062 221.601,473.728 222,473.5C 224.071,474.103 225.238,475.436 225.5,477.5 Z"/></g>
<g><path style="opacity:0.148" fill="#636dcb" d="M 287.5,475.5 C 286.205,476.488 284.872,477.488 283.5,478.5C 283.942,475.668 285.275,474.668 287.5,475.5 Z"/></g>
<g><path style="opacity:0.117" fill="#636dcb" d="M 232.5,481.5 C 230.77,480.974 229.436,479.974 228.5,478.5C 228.435,478.062 228.601,477.728 229,477.5C 231.071,478.103 232.238,479.436 232.5,481.5 Z"/></g>
<g><path style="opacity:0.217" fill="#636dcb" d="M 282.5,478.5 C 281.486,479.674 280.153,480.34 278.5,480.5C 278.787,478.879 279.787,477.879 281.5,477.5C 282.107,477.624 282.44,477.957 282.5,478.5 Z"/></g>
<g><path style="opacity:0.1" fill="#636dcb" d="M 237.5,484.5 C 236.5,484.167 235.833,483.5 235.5,482.5C 235.81,481.262 236.31,481.262 237,482.5C 237.464,483.094 237.631,483.761 237.5,484.5 Z"/></g>
<g><path style="opacity:0.171" fill="#636dcb" d="M 275.5,482.5 C 274.71,483.401 273.71,484.068 272.5,484.5C 272.668,481.949 273.668,481.282 275.5,482.5 Z"/></g>
<g><path style="opacity:0.179" fill="#636dcb" d="M 270.5,485.5 C 268.537,486.82 266.537,488.154 264.5,489.5C 265.439,486.053 267.439,484.72 270.5,485.5 Z"/></g>
<g><path style="opacity:0.101" fill="#636dcb" d="M 244.5,488.5 C 243.5,488.167 242.833,487.5 242.5,486.5C 242.81,485.262 243.31,485.262 244,486.5C 244.464,487.094 244.631,487.761 244.5,488.5 Z"/></g>
<g><path style="opacity:0.116" fill="#636dcb" d="M 251.5,492.5 C 249.77,491.974 248.436,490.974 247.5,489.5C 247.435,489.062 247.601,488.728 248,488.5C 250.071,489.103 251.238,490.436 251.5,492.5 Z"/></g>
<g><path style="opacity:0.169" fill="#636dcb" d="M 263.5,489.5 C 262.71,490.401 261.71,491.068 260.5,491.5C 260.668,488.949 261.668,488.282 263.5,489.5 Z"/></g>
<g><path style="opacity:0.379" fill="#636dcb" d="M 256.5,493.5 C 255.833,494.833 255.167,494.833 254.5,493.5C 254.737,489.711 255.404,489.711 256.5,493.5 Z"/></g>
</svg>
